<svg xmlns="http://www.w3.org/2000/svg" width="360" height="192" viewBox="0 0 360 192">
  <g fill="#eee" fill-rule="nonzero">
    <path d="M25.5 14.2c.6.7 1.5 1 2.5 1s1.8-.3 2.5-1L35 10a3.4 3.4 0 0 0 0-5l-.2-.2c-.7-.6-1.6-1-2.6-1s-1.8.4-2.5 1l-4.3 4.3a3.4 3.4 0 0 0 0 4.9l.2.2zM27 11l4.4-4.3c.2-.2.4-.3.7-.3.3 0 .6.1.8.3l.2.2c.4.4.4 1 0 1.4l-4.4 4.3a1 1 0 0 1-1.4 0l-.2-.2c-.5-.4-.5-1 0-1.4zM25 18c0-.9-.3-1.8-1-2.4l-.2-.2a3.6 3.6 0 0 0-5 0L1 32.8a3.5 3.5 0 0 0 0 5l.2.2c.7.6 1.6 1 2.6 1s1.8-.4 2.5-1L24 20.6c.7-.6 1-1.5 1-2.5zm-2.7.8L4.5 36.3c-.4.3-1 .3-1.5 0l-.2-.2a1 1 0 0 1 0-1.5l17.7-17.4c.2-.2.5-.3.8-.3.2 0 .5 0 .7.3l.3.2c.2.2.3.5.3.7 0 .3-.1.6-.3.8zM5.9 9.7h.5a3 3 0 0 1 3 3v1c0 .4.4.8 1 .8h.2c.4 0 .8-.4.8-.9v-1a3 3 0 0 1 3.1-3h.5c.5 0 .9-.3.9-.8v-.1c0-.5-.4-.9-.9-.9h-.5a3 3 0 0 1-3-3v-1c0-.4-.5-.8-1-.8h-.2c-.5 0-.9.4-.9.8v1a3 3 0 0 1-3 3h-.5c-.5 0-.9.4-.9.8v.1c0 .6.4 1 .9 1zM9.6 7c.3.7.7 1.2 1.3 1.6-.6.5-1 1-1.3 1.7-.3-.7-.7-1.2-1.2-1.7.5-.4 1-1 1.2-1.6zm23 25.2H32a3 3 0 0 1-3.1-3v-1c0-.4-.4-.8-.9-.8H28h-.2c-.4 0-.8.4-.8.9v1a3 3 0 0 1-3.1 3h-.5c-.5 0-.8.3-.8.8v.1c0 .5.3.9.8.9h.5a3 3 0 0 1 3 3v1c0 .4.5.8 1 .8h.2c.5 0 .9-.4.9-.8v-1a3 3 0 0 1 3-3h.5c.5 0 1-.4 1-.8v-.1c0-.6-.5-1-1-1zM27 35.7c-.3-.6-.7-1.2-1.2-1.6.5-.4 1-1 1.2-1.6.4.6.8 1.2 1.3 1.6-.5.4-1 1-1.3 1.6zm10.5-17.2c0-.4-.4-.8-.9-.8h-.2c-.8 0-1.4-.5-1.4-1.2v-.4c0-.5-.3-.8-.8-.8h-.1c-.5 0-.9.3-.9.8v.4c0 .7-.6 1.2-1.3 1.2h-.2c-.5 0-.9.4-.9.8 0 .5.4.9.9.9h.2c.7 0 1.3.5 1.3 1.2v.4c0 .5.4.8.9.8.6 0 1-.3 1-.8v-.4c0-.7.5-1.2 1.3-1.2h.2c.5 0 .9-.4.9-.8zm-3.2.3l-.2-.1.2-.2.1.2-.1.1z" />
    <g transform="rotate(45 50.4 108.8)">
      <path d="M34 26.6v-4.9a2 2 0 0 0-2-2h-1.3v-4.3a3 3 0 0 0-3-3.1V9.6a3 3 0 0 0-3.1-3.1h-1.3V2.7c0-.8-.3-1.4-.8-2-.5-.4-1.2-.7-1.8-.7h-13A2.6 2.6 0 0 0 5 2.7v3.8H3.7c-2 0-3.7 1.7-3.7 3.8V33c0 .8.3 1.6 1 2.2a3 3 0 0 0 2 .9h24.7c1.7 0 3-1.4 3-3.1v-4.2H32c1 0 2-1 2-2.1zM24.6 8.4c.7 0 1.2.5 1.2 1.2v2.7h-2.5v-4h1.3zm-3.2-5.7v9.6H19V1.9h1.8c.2 0 .4 0 .5.2l.2.6zM7.7 1.9H17v10.4H6.9V2.7c0-.5.4-.8.8-.8zm-4 6.5h1.4v3.9H3.7c-1 0-1.9-.9-1.9-2 0-1 .9-2 2-2zM29 32.9c0 .7-.5 1.2-1.2 1.2H3c-.7 0-1.3-.5-1.3-1.2V13.6c.6.4 1.3.6 2 .6h23.9c.7 0 1.2.5 1.2 1.2v4.2h-4.6c-1.2 0-2.4.5-3.2 1.4a4.6 4.6 0 0 0 3.3 7.7H29v4.2zm3.3-6.3l-.2.2h-7.6a2.7 2.7 0 1 1-2-4.5c.5-.5 1.2-.8 2-.8H32s.2 0 .2.2v4.9z" />
      <ellipse cx="24.4" cy="24.3" rx="1" ry="1" />
    </g>
    <g transform="scale(-1 1) rotate(-35 -67.7 303.4)">
      <path d="M31 16H30a12 12 0 0 1-1.9-2.2c-.2-.4-.3-.8-.2-1.3.1-.5.4-1 .7-1.5.6-.9.5-2-.3-2.7-.5-.5-1.2-.8-2-.7l-.7.2c-1.3.2-2.5.7-3.6 1.4h-5a1 1 0 0 0-.9 1c0 .5.5.9 1 .9h5.3c.2 0 .4 0 .6-.2a6.8 6.8 0 0 1 3.6-1.4h.3c.2.2.2.4.1.5-.5.6-.8 1.4-1 2.1-.2 1 0 2 .5 2.7.7 1 1.5 2 2.5 3l.6.2H31c.6 0 1 .4 1 1v3.6c0 .2 0 .4-.2.5a22.2 22.2 0 0 1-5.7 3.8c-.8.4-1.3 1-1.6 1.8l-1.6 5.1c0 .2-.2.3-.4.3h-2a.4.4 0 0 1-.4-.3l-.7-2.4c-.2-.5-.6-.8-1.2-.8h-5.5c-.5 0-1 .3-1.1.8l-.7 2.4c0 .2-.2.3-.4.3h-2a.4.4 0 0 1-.4-.3l-.3-.7c-1-3.2-2.5-6.2-4.4-9-2-3-2-6.8.3-9.7.2-.3.3-.6.1-1a1 1 0 0 0-1.7-.2c-2.7 3.6-2.8 8.4-.3 12C3.6 27.8 5 30.7 6 33.7l.2.7c.3 1 1.2 1.6 2.3 1.6h2c1 0 2-.7 2.2-1.7l.6-1.8h4.4l.5 1.8c.3 1 1.2 1.7 2.3 1.7h2c1 0 2-.7 2.2-1.6l1.6-5.1c.1-.3.4-.6.7-.7a24 24 0 0 0 6.2-4.1c.5-.5.8-1.2.8-2V19c0-.8-.3-1.5-.9-2a3 3 0 0 0-2.1-1z" />
      <path d="M7.2 16.2a4.8 4.8 0 0 0 6.5.3c1.9-1.6 2-4.3.3-6a4.8 4.8 0 0 0-6.5-.4c-.9.8-1.4 1.9-1.5 3 0 1.2.4 2.3 1.2 3.1zm1.6-4.7c.5-.4 1.2-.7 1.8-.7h.2c1.2 0 2.3 1 2.5 2.1.1 1.2-.6 2.4-1.8 2.8-1.2.4-2.5 0-3.1-1.1-.7-1-.5-2.3.4-3.1zM10.1 1a3.7 3.7 0 0 0-.2 5.4 4 4 0 0 0 4.2 1A3.8 3.8 0 0 0 16.6 4c.1-1.5-.8-3-2.2-3.6a4 4 0 0 0-4.3.6zm4 4.2a2 2 0 0 1-2.2.3c-.7-.3-1.2-1-1.1-1.8A2 2 0 0 1 12 2a2 2 0 0 1 2 .5c.8.8.7 2 0 2.7zM1.2 3.7C0 4.7-.3 6 .2 7.4a3.5 3.5 0 0 0 3.2 2.3h.1c1.6 0 3-1 3.4-2.5.5-1.5-.1-3.1-1.5-4-1.3-.7-3-.6-4.2.5zm3.5 3.7c-.6.6-1.5.6-2.1.1-.7-.4-.9-1.3-.6-2 .4-.7 1.2-1 2-.8.7.1 1.2.8 1.2 1.6 0 .4-.2.9-.5 1.1z" />
      <ellipse cx="24.1" cy="17.3" rx="1.1" ry="1" transform="rotate(-70.4 24 17.3)" />
    </g>
    <path d="M234.7 25.3a1 1 0 0 1 0 1.5l-9.2 9.4a5.5 5.5 0 0 1-7.8.1 5.6 5.6 0 0 1-.1-7.9l.3-.3a1 1 0 0 1 1.5 0c.4.3.4 1 0 1.4l-.3.4a3.5 3.5 0 0 0 1.5 6c1.3.2 2.6-.2 3.5-1.1l9.2-9.5a1 1 0 0 1 1.4 0zm16-15c6.7 7.3 7 18.3.6 25.9a1.7 1.7 0 0 1-2.9-.6A9.6 9.6 0 0 0 246 32c-1.7-1.7-3.5-2.5-4.5-2.5a1.9 1.9 0 0 1-2-1.9c0-1-.8-2.8-2.6-4.6-1.8-1.7-3.6-2.5-4.6-2.5-1 0-1.9-.8-1.9-1.9 0-1-.8-2.8-2.6-4.5-1-1-2.3-1.9-3.6-2.4a1.7 1.7 0 0 1-.7-2.8 19.5 19.5 0 0 1 25.8 0l.7-.8a1 1 0 0 1 1.4 0c.4.4.4 1 0 1.5l-.6.7zm-18.5 6.8c3.8-4.2 8.9-7 14.4-7.7-6.4-4.7-15-4.4-21.2.6 1.4.6 2.7 1.5 3.8 2.6 1.4 1.3 2.4 2.8 3 4.5zm9.2 9.2c6-5.9 6.9-12.6 7-15-2.5.1-9 1.1-14.8 7.3 1.8.6 3.4 1.6 4.8 3 1.3 1.3 2.4 2.9 3 4.7zm9-13.3a24.4 24.4 0 0 1-7.4 14.7c1.7.6 3.2 1.5 4.5 2.8 1.1 1.1 2 2.4 2.7 3.8 4.8-6.2 4.8-15 .1-21.3z" />
    <g stroke="#eee">
      <path d="M310 13.4v-.3a12 12 0 0 0-15.5-7 12 12 0 0 0-7.3 15.2c2.2 6 8.7 9.1 14.8 7.3l.1.3a12 12 0 0 0 15.4 7 12 12 0 0 0 7.3-15.2 12 12 0 0 0-14.8-7.3zM288.4 21c-2-5.5 1-11.6 6.5-13.6 5.6-2 11.8.8 13.8 6.2 2 5.5-1 11.6-6.5 13.6-5.6 2-11.8-.7-13.8-6.2zm28.7 13.8c-5.6 2-11.7-.8-13.7-6.2l-.2-.4a12 12 0 0 0 7.2-13.4 10.7 10.7 0 0 1 13.2 6.4c2 5.5-1 11.6-6.5 13.6zM315.6 8.2l-5-1.1-.3 1.3 7.3 1.7 2-7.3-1.4-.3-1.3 5c-1.8-4-6.5-6-10.8-4.4l.5 1.3c3.6-1.3 7.7.4 9 3.8zM296.4 33.8l5 1.1.3-1.3-7.3-1.7-2 7.3 1.4.3 1.3-5c1.8 4 6.5 6 10.8 4.4l-.4-1.3a7.1 7.1 0 0 1-9.1-3.8z" />
    </g>
    <g>
      <path d="M198.5 64.2c.6.7 1.5 1 2.5 1s1.8-.3 2.5-1L208 60a3.4 3.4 0 0 0 0-5l-.2-.2c-.7-.6-1.6-1-2.6-1s-1.8.4-2.5 1l-4.3 4.3a3.4 3.4 0 0 0 0 4.9l.2.2zM200 61l4.4-4.3c.2-.2.4-.3.7-.3.3 0 .6.1.8.3l.2.2c.4.4.4 1 0 1.4l-4.4 4.3a1 1 0 0 1-1.4 0l-.2-.2c-.5-.4-.5-1 0-1.4zm-2 7.2c0-.9-.3-1.8-1-2.4l-.2-.2a3.6 3.6 0 0 0-5 0L174 82.8a3.5 3.5 0 0 0 0 5l.2.2c.7.6 1.6 1 2.6 1s1.8-.4 2.5-1L197 70.6c.7-.6 1-1.5 1-2.5zm-2.7.8l-17.8 17.4c-.4.3-1 .3-1.5 0l-.2-.2a1 1 0 0 1 0-1.5l17.7-17.4c.2-.2.5-.3.8-.3.2 0 .5 0 .7.3l.3.2c.2.2.3.5.3.7 0 .3-.1.6-.3.8zm-16.4-9.2h.5a3 3 0 0 1 3 3v1c0 .4.4.8 1 .8h.2c.4 0 .8-.4.8-.9v-1a3 3 0 0 1 3.1-3h.5c.5 0 .9-.3.9-.8v-.1c0-.5-.4-.9-.9-.9h-.5a3 3 0 0 1-3-3v-1c0-.4-.5-.8-1-.8h-.2c-.5 0-.9.4-.9.8v1a3 3 0 0 1-3 3h-.5c-.5 0-.9.4-.9.8v.1c0 .6.4 1 .9 1zm3.7-2.6c.3.7.7 1.2 1.3 1.6-.6.5-1 1-1.3 1.7-.3-.7-.7-1.2-1.2-1.7.5-.4 1-1 1.2-1.6zm23 25.2h-.5a3 3 0 0 1-3.1-3v-1c0-.4-.4-.8-.9-.8h-.1-.2c-.4 0-.8.4-.8.9v1a3 3 0 0 1-3.1 3h-.5c-.5 0-.8.3-.8.8v.1c0 .5.3.9.8.9h.5a3 3 0 0 1 3 3v1c0 .4.5.8 1 .8h.2c.5 0 .9-.4.9-.8v-1a3 3 0 0 1 3-3h.5c.5 0 1-.4 1-.8v-.1c0-.6-.5-1-1-1zm-5.5 3.4c-.3-.6-.7-1.2-1.2-1.6.5-.4 1-1 1.2-1.6.4.6.8 1.2 1.3 1.6-.5.4-1 1-1.3 1.6zm10.5-17.2c0-.4-.4-.8-.9-.8h-.2c-.8 0-1.4-.5-1.4-1.2v-.4c0-.5-.3-.8-.8-.8h-.1c-.5 0-.9.3-.9.8v.4c0 .7-.6 1.2-1.3 1.2h-.2c-.5 0-.9.4-.9.8 0 .5.4.9.9.9h.2c.7 0 1.3.5 1.3 1.2v.4c0 .5.4.8.9.8.6 0 1-.3 1-.8v-.4c0-.7.5-1.2 1.3-1.2h.2c.5 0 .9-.4.9-.8zm-3.2.3l-.2-.1.2-.2.1.2-.1.1z" />
      <g transform="rotate(45 116.7 438.8)">
        <path d="M34 26.6v-4.9a2 2 0 0 0-2-2h-1.3v-4.3a3 3 0 0 0-3-3.1V9.6a3 3 0 0 0-3.1-3.1h-1.3V2.7c0-.8-.3-1.4-.8-2-.5-.4-1.2-.7-1.8-.7h-13A2.6 2.6 0 0 0 5 2.7v3.8H3.7c-2 0-3.7 1.7-3.7 3.8V33c0 .8.3 1.6 1 2.2a3 3 0 0 0 2 .9h24.7c1.7 0 3-1.4 3-3.1v-4.2H32c1 0 2-1 2-2.1zM24.6 8.4c.7 0 1.2.5 1.2 1.2v2.7h-2.5v-4h1.3zm-3.2-5.7v9.6H19V1.9h1.8c.2 0 .4 0 .5.2l.2.6zM7.7 1.9H17v10.4H6.9V2.7c0-.5.4-.8.8-.8zm-4 6.5h1.4v3.9H3.7c-1 0-1.9-.9-1.9-2 0-1 .9-2 2-2zM29 32.9c0 .7-.5 1.2-1.2 1.2H3c-.7 0-1.3-.5-1.3-1.2V13.6c.6.4 1.3.6 2 .6h23.9c.7 0 1.2.5 1.2 1.2v4.2h-4.6c-1.2 0-2.4.5-3.2 1.4a4.6 4.6 0 0 0 3.3 7.7H29v4.2zm3.3-6.3l-.2.2h-7.6a2.7 2.7 0 1 1-2-4.5c.5-.5 1.2-.8 2-.8H32s.2 0 .2.2v4.9z" />
        <ellipse cx="24.4" cy="24.3" rx="1" ry="1" />
      </g>
      <g transform="scale(-1 1) rotate(-35 -40 491.7)">
        <path d="M31 16H30a12 12 0 0 1-1.9-2.2c-.2-.4-.3-.8-.2-1.3.1-.5.4-1 .7-1.5.6-.9.5-2-.3-2.7-.5-.5-1.2-.8-2-.7l-.7.2c-1.3.2-2.5.7-3.6 1.4h-5a1 1 0 0 0-.9 1c0 .5.5.9 1 .9h5.3c.2 0 .4 0 .6-.2a6.8 6.8 0 0 1 3.6-1.4h.3c.2.2.2.4.1.5-.5.6-.8 1.4-1 2.1-.2 1 0 2 .5 2.7.7 1 1.5 2 2.5 3l.6.2H31c.6 0 1 .4 1 1v3.6c0 .2 0 .4-.2.5a22.2 22.2 0 0 1-5.7 3.8c-.8.4-1.3 1-1.6 1.8l-1.6 5.1c0 .2-.2.3-.4.3h-2a.4.4 0 0 1-.4-.3l-.7-2.4c-.2-.5-.6-.8-1.2-.8h-5.5c-.5 0-1 .3-1.1.8l-.7 2.4c0 .2-.2.3-.4.3h-2a.4.4 0 0 1-.4-.3l-.3-.7c-1-3.2-2.5-6.2-4.4-9-2-3-2-6.8.3-9.7.2-.3.3-.6.1-1a1 1 0 0 0-1.7-.2c-2.7 3.6-2.8 8.4-.3 12C3.6 27.8 5 30.7 6 33.7l.2.7c.3 1 1.2 1.6 2.3 1.6h2c1 0 2-.7 2.2-1.7l.6-1.8h4.4l.5 1.8c.3 1 1.2 1.7 2.3 1.7h2c1 0 2-.7 2.2-1.6l1.6-5.1c.1-.3.4-.6.7-.7a24 24 0 0 0 6.2-4.1c.5-.5.8-1.2.8-2V19c0-.8-.3-1.5-.9-2a3 3 0 0 0-2.1-1z" />
        <path d="M7.2 16.2a4.8 4.8 0 0 0 6.5.3c1.9-1.6 2-4.3.3-6a4.8 4.8 0 0 0-6.5-.4c-.9.8-1.4 1.9-1.5 3 0 1.2.4 2.3 1.2 3.1zm1.6-4.7c.5-.4 1.2-.7 1.8-.7h.2c1.2 0 2.3 1 2.5 2.1.1 1.2-.6 2.4-1.8 2.8-1.2.4-2.5 0-3.1-1.1-.7-1-.5-2.3.4-3.1zM10.1 1a3.7 3.7 0 0 0-.2 5.4 4 4 0 0 0 4.2 1A3.8 3.8 0 0 0 16.6 4c.1-1.5-.8-3-2.2-3.6a4 4 0 0 0-4.3.6zm4 4.2a2 2 0 0 1-2.2.3c-.7-.3-1.2-1-1.1-1.8A2 2 0 0 1 12 2a2 2 0 0 1 2 .5c.8.8.7 2 0 2.7zM1.2 3.7C0 4.7-.3 6 .2 7.4a3.5 3.5 0 0 0 3.2 2.3h.1c1.6 0 3-1 3.4-2.5.5-1.5-.1-3.1-1.5-4-1.3-.7-3-.6-4.2.5zm3.5 3.7c-.6.6-1.5.6-2.1.1-.7-.4-.9-1.3-.6-2 .4-.7 1.2-1 2-.8.7.1 1.2.8 1.2 1.6 0 .4-.2.9-.5 1.1z" />
        <ellipse cx="24.1" cy="17.3" rx="1.1" ry="1" transform="rotate(-70.4 24 17.3)" />
      </g>
      <path d="M122.7 75.3a1 1 0 0 1 0 1.5l-9.2 9.4a5.5 5.5 0 0 1-7.8.1 5.6 5.6 0 0 1-.1-7.9l.3-.3a1 1 0 0 1 1.5 0c.4.3.4 1 0 1.4l-.3.4a3.5 3.5 0 0 0 1.5 6c1.3.2 2.6-.2 3.5-1.1l9.2-9.5a1 1 0 0 1 1.4 0zm16-15c6.7 7.3 7 18.3.6 25.9a1.7 1.7 0 0 1-2.9-.6A9.6 9.6 0 0 0 134 82c-1.7-1.7-3.5-2.5-4.5-2.5a1.9 1.9 0 0 1-2-1.9c0-1-.8-2.8-2.6-4.6-1.8-1.7-3.6-2.5-4.6-2.5-1 0-1.9-.8-1.9-1.9 0-1-.8-2.8-2.6-4.5-1-1-2.3-1.9-3.6-2.4a1.7 1.7 0 0 1-.7-2.8 19.5 19.5 0 0 1 25.8 0l.7-.8a1 1 0 0 1 1.4 0c.4.4.4 1 0 1.5l-.6.7zm-18.5 6.8c3.8-4.2 8.9-7 14.4-7.7-6.4-4.7-15-4.4-21.2.6 1.4.6 2.7 1.5 3.8 2.6 1.4 1.3 2.4 2.8 3 4.5zm9.2 9.2c6-5.9 6.9-12.6 7-15-2.5.1-9 1.1-14.8 7.3 1.8.6 3.4 1.6 4.8 3 1.3 1.3 2.4 2.9 3 4.7zm9-13.3a24.4 24.4 0 0 1-7.4 14.7c1.7.6 3.2 1.5 4.5 2.8 1.1 1.1 2 2.4 2.7 3.8 4.8-6.2 4.8-15 .1-21.3z" />
      <g stroke="#eee">
        <path d="M54 63.4l-.1-.3a12 12 0 0 0-15.4-7 12 12 0 0 0-7.3 15.2c2.1 6 8.7 9.1 14.8 7.3l.1.3a12 12 0 0 0 15.4 7 12 12 0 0 0 7.3-15.2A12 12 0 0 0 54 63.4zM32.4 71c-2-5.5 1-11.6 6.5-13.6 5.6-2 11.8.8 13.7 6.2 2 5.5-.9 11.6-6.4 13.6-5.6 2-11.8-.7-13.8-6.2zm28.7 13.8c-5.6 2-11.8-.8-13.7-6.2l-.2-.4a12 12 0 0 0 7.2-13.4 10.7 10.7 0 0 1 13.2 6.4c2 5.5-1 11.6-6.5 13.6zM59.6 58.2l-5-1.1-.3 1.3 7.3 1.7 2-7.3-1.4-.3-1.3 5c-1.8-4-6.5-6-10.8-4.4l.5 1.3c3.6-1.3 7.7.4 9 3.8zM40.4 83.8l5 1.1.3-1.3-7.3-1.7-2 7.3 1.4.3 1.3-5c1.8 4 6.5 6 10.8 4.4l-.5-1.3a7.1 7.1 0 0 1-9-3.8z" />
      </g>
    </g>
    <g>
      <g stroke="#eee">
        <path d="M242 113.4v-.3a12 12 0 0 0-15.5-7 12 12 0 0 0-7.3 15.2c2.2 6 8.7 9.1 14.8 7.3l.1.3a12 12 0 0 0 15.4 7 12 12 0 0 0 7.3-15.2 12 12 0 0 0-14.8-7.3zm-21.6 7.5c-2-5.5 1-11.6 6.5-13.6 5.6-2 11.8.8 13.8 6.2 2 5.5-1 11.6-6.5 13.6-5.6 2-11.8-.7-13.8-6.2zm28.7 13.8c-5.6 2-11.7-.8-13.7-6.2l-.2-.4a12 12 0 0 0 7.2-13.4 10.7 10.7 0 0 1 13.2 6.4c2 5.5-1 11.6-6.5 13.6zM247.6 108.2l-5-1.1-.3 1.3 7.3 1.7 2-7.3-1.4-.3-1.3 5c-1.8-4-6.5-6-10.8-4.4l.5 1.3c3.6-1.3 7.7.4 9 3.8zM228.4 133.8l5 1.1.3-1.3-7.3-1.7-2 7.3 1.4.3 1.3-5c1.8 4 6.5 6 10.8 4.4l-.4-1.3a7.1 7.1 0 0 1-9.1-3.8z" />
      </g>
      <g transform="rotate(45 -34.2 245.3)">
        <path d="M34 26.6v-4.9a2 2 0 0 0-2-2h-1.3v-4.3a3 3 0 0 0-3-3.1V9.6a3 3 0 0 0-3.1-3.1h-1.3V2.7c0-.8-.3-1.4-.8-2-.5-.4-1.2-.7-1.8-.7h-13A2.6 2.6 0 0 0 5 2.7v3.8H3.7c-2 0-3.7 1.7-3.7 3.8V33c0 .8.3 1.6 1 2.2a3 3 0 0 0 2 .9h24.7c1.7 0 3-1.4 3-3.1v-4.2H32c1 0 2-1 2-2.1zM24.6 8.4c.7 0 1.2.5 1.2 1.2v2.7h-2.5v-4h1.3zm-3.2-5.7v9.6H19V1.9h1.8c.2 0 .4 0 .5.2l.2.6zM7.7 1.9H17v10.4H6.9V2.7c0-.5.4-.8.8-.8zm-4 6.5h1.4v3.9H3.7c-1 0-1.9-.9-1.9-2 0-1 .9-2 2-2zM29 32.9c0 .7-.5 1.2-1.2 1.2H3c-.7 0-1.3-.5-1.3-1.2V13.6c.6.4 1.3.6 2 .6h23.9c.7 0 1.2.5 1.2 1.2v4.2h-4.6c-1.2 0-2.4.5-3.2 1.4a4.6 4.6 0 0 0 3.3 7.7H29v4.2zm3.3-6.3l-.2.2h-7.6a2.7 2.7 0 1 1-2-4.5c.5-.5 1.2-.8 2-.8H32s.2 0 .2.2v4.9z" />
        <ellipse cx="24.4" cy="24.3" rx="1" ry="1" />
      </g>
      <path d="M306.7 125.3a1 1 0 0 1 0 1.5l-9.2 9.4a5.5 5.5 0 0 1-7.8.1 5.6 5.6 0 0 1-.1-7.9l.3-.3a1 1 0 0 1 1.5 0c.4.3.4 1 0 1.4l-.3.4a3.5 3.5 0 0 0 1.5 6c1.3.2 2.6-.2 3.5-1.1l9.2-9.5a1 1 0 0 1 1.4 0zm16-15c6.7 7.3 7 18.3.6 25.9a1.7 1.7 0 0 1-2.9-.6 9.6 9.6 0 0 0-2.4-3.6c-1.7-1.7-3.5-2.5-4.5-2.5a1.9 1.9 0 0 1-2-1.9c0-1-.8-2.8-2.6-4.6-1.8-1.7-3.6-2.5-4.6-2.5-1 0-1.9-.8-1.9-1.9 0-1-.8-2.8-2.6-4.5-1-1-2.3-1.9-3.6-2.4a1.7 1.7 0 0 1-.7-2.8 19.5 19.5 0 0 1 25.8 0l.7-.8a1 1 0 0 1 1.4 0c.4.4.4 1 0 1.5l-.6.7zm-18.5 6.8c3.8-4.2 8.9-7 14.4-7.7-6.4-4.7-15-4.4-21.2.6 1.4.6 2.7 1.5 3.8 2.6 1.4 1.3 2.4 2.8 3 4.5zm9.2 9.2c6-5.9 6.9-12.6 7-15-2.5.1-9 1.1-14.8 7.3 1.8.6 3.4 1.6 4.8 3 1.3 1.3 2.4 2.9 3 4.7zm9-13.3a24.4 24.4 0 0 1-7.4 14.7c1.7.6 3.2 1.5 4.5 2.8 1.1 1.1 2 2.4 2.7 3.8 4.8-6.2 4.8-15 .1-21.3z" />
      <g transform="scale(-1 1) rotate(-35 159.3 136.1)">
        <path d="M31 16H30a12 12 0 0 1-1.9-2.2c-.2-.4-.3-.8-.2-1.3.1-.5.4-1 .7-1.5.6-.9.5-2-.3-2.7-.5-.5-1.2-.8-2-.7l-.7.2c-1.3.2-2.5.7-3.6 1.4h-5a1 1 0 0 0-.9 1c0 .5.5.9 1 .9h5.3c.2 0 .4 0 .6-.2a6.8 6.8 0 0 1 3.6-1.4h.3c.2.2.2.4.1.5-.5.6-.8 1.4-1 2.1-.2 1 0 2 .5 2.7.7 1 1.5 2 2.5 3l.6.2H31c.6 0 1 .4 1 1v3.6c0 .2 0 .4-.2.5a22.2 22.2 0 0 1-5.7 3.8c-.8.4-1.3 1-1.6 1.8l-1.6 5.1c0 .2-.2.3-.4.3h-2a.4.4 0 0 1-.4-.3l-.7-2.4c-.2-.5-.6-.8-1.2-.8h-5.5c-.5 0-1 .3-1.1.8l-.7 2.4c0 .2-.2.3-.4.3h-2a.4.4 0 0 1-.4-.3l-.3-.7c-1-3.2-2.5-6.2-4.4-9-2-3-2-6.8.3-9.7.2-.3.3-.6.1-1a1 1 0 0 0-1.7-.2c-2.7 3.6-2.8 8.4-.3 12C3.6 27.8 5 30.7 6 33.7l.2.7c.3 1 1.2 1.6 2.3 1.6h2c1 0 2-.7 2.2-1.7l.6-1.8h4.4l.5 1.8c.3 1 1.2 1.7 2.3 1.7h2c1 0 2-.7 2.2-1.6l1.6-5.1c.1-.3.4-.6.7-.7a24 24 0 0 0 6.2-4.1c.5-.5.8-1.2.8-2V19c0-.8-.3-1.5-.9-2a3 3 0 0 0-2.1-1z" />
        <path d="M7.2 16.2a4.8 4.8 0 0 0 6.5.3c1.9-1.6 2-4.3.3-6a4.8 4.8 0 0 0-6.5-.4c-.9.8-1.4 1.9-1.5 3 0 1.2.4 2.3 1.2 3.1zm1.6-4.7c.5-.4 1.2-.7 1.8-.7h.2c1.2 0 2.3 1 2.5 2.1.1 1.2-.6 2.4-1.8 2.8-1.2.4-2.5 0-3.1-1.1-.7-1-.5-2.3.4-3.1zM10.1 1a3.7 3.7 0 0 0-.2 5.4 4 4 0 0 0 4.2 1A3.8 3.8 0 0 0 16.6 4c.1-1.5-.8-3-2.2-3.6a4 4 0 0 0-4.3.6zm4 4.2a2 2 0 0 1-2.2.3c-.7-.3-1.2-1-1.1-1.8A2 2 0 0 1 12 2a2 2 0 0 1 2 .5c.8.8.7 2 0 2.7zM1.2 3.7C0 4.7-.3 6 .2 7.4a3.5 3.5 0 0 0 3.2 2.3h.1c1.6 0 3-1 3.4-2.5.5-1.5-.1-3.1-1.5-4-1.3-.7-3-.6-4.2.5zm3.5 3.7c-.6.6-1.5.6-2.1.1-.7-.4-.9-1.3-.6-2 .4-.7 1.2-1 2-.8.7.1 1.2.8 1.2 1.6 0 .4-.2.9-.5 1.1z" />
        <ellipse cx="24.1" cy="17.3" rx="1.1" ry="1" transform="rotate(-70.4 24 17.3)" />
      </g>
      <path d="M100.5 114.2c.6.7 1.5 1 2.5 1s1.8-.3 2.5-1l4.4-4.2a3.4 3.4 0 0 0 0-5l-.2-.2c-.7-.6-1.6-1-2.6-1s-1.8.4-2.5 1l-4.3 4.3a3.4 3.4 0 0 0 0 4.9l.2.2zm1.5-3.3l4.4-4.3c.2-.2.4-.3.7-.3.3 0 .6.1.8.3l.2.2c.4.4.4 1 0 1.4l-4.4 4.3a1 1 0 0 1-1.4 0l-.2-.2c-.5-.4-.5-1 0-1.4zm-2 7.2c0-.9-.3-1.8-1-2.4l-.2-.2a3.6 3.6 0 0 0-5 0L76 132.8a3.5 3.5 0 0 0 0 5l.2.2c.7.6 1.6 1 2.6 1s1.8-.4 2.5-1L99 120.6c.7-.6 1-1.5 1-2.5zm-2.7.8l-17.8 17.4c-.4.3-1 .3-1.5 0l-.2-.2a1 1 0 0 1 0-1.5l17.7-17.4c.2-.2.5-.3.8-.3.2 0 .5 0 .7.3l.3.2c.2.2.3.5.3.7 0 .3-.1.6-.3.8zm-16.4-9.2h.5a3 3 0 0 1 3 3v1c0 .4.4.8 1 .8h.2c.4 0 .8-.4.8-.9v-1a3 3 0 0 1 3.1-3h.5c.5 0 .9-.3.9-.8v-.1c0-.5-.4-.9-.9-.9h-.5a3 3 0 0 1-3-3v-1c0-.4-.5-.8-1-.8h-.2c-.5 0-.9.4-.9.8v1a3 3 0 0 1-3 3h-.5c-.5 0-.9.4-.9.8v.1c0 .6.4 1 .9 1zm3.7-2.6c.3.7.7 1.2 1.3 1.6-.6.5-1 1-1.3 1.7-.3-.7-.7-1.2-1.2-1.7.5-.4 1-1 1.2-1.6zm23 25.2h-.5a3 3 0 0 1-3.1-3v-1c0-.4-.4-.8-.9-.8h-.1-.2c-.4 0-.8.4-.8.9v1a3 3 0 0 1-3.1 3h-.5c-.5 0-.8.3-.8.8v.1c0 .5.3.9.8.9h.5a3 3 0 0 1 3 3v1c0 .4.5.8 1 .8h.2c.5 0 .9-.4.9-.8v-1a3 3 0 0 1 3-3h.5c.5 0 1-.4 1-.8v-.1c0-.6-.5-1-1-1zm-5.5 3.4c-.3-.6-.7-1.2-1.2-1.6.5-.4 1-1 1.2-1.6.4.6.8 1.2 1.3 1.6-.5.4-1 1-1.3 1.6zm10.5-17.2c0-.4-.4-.8-.9-.8h-.2c-.8 0-1.4-.5-1.4-1.2v-.4c0-.5-.3-.8-.8-.8h-.1c-.5 0-.9.3-.9.8v.4c0 .7-.6 1.2-1.3 1.2h-.2c-.5 0-.9.4-.9.8 0 .5.4.9.9.9h.2c.7 0 1.3.5 1.3 1.2v.4c0 .5.4.8.9.8.6 0 1-.3 1-.8v-.4c0-.7.5-1.2 1.3-1.2h.2c.5 0 .9-.4.9-.8zm-3.2.3l-.2-.1.2-.2.1.2-.1.1z" />
    </g>
    <g>
      <g stroke="#eee">
        <path d="M131 163.4v-.3a12 12 0 0 0-15.5-7 12 12 0 0 0-7.3 15.2c2.2 6 8.7 9.1 14.8 7.3l.1.3a12 12 0 0 0 15.4 7 12 12 0 0 0 7.3-15.2 12 12 0 0 0-14.8-7.3zm-21.6 7.5c-2-5.5 1-11.6 6.5-13.6 5.6-2 11.8.8 13.8 6.2 2 5.5-1 11.6-6.5 13.6-5.6 2-11.8-.7-13.8-6.2zm28.7 13.8c-5.6 2-11.7-.8-13.7-6.2l-.2-.4a12 12 0 0 0 7.2-13.4 10.7 10.7 0 0 1 13.2 6.4c2 5.5-1 11.6-6.5 13.6zM136.6 158.2l-5-1.1-.3 1.3 7.3 1.7 2-7.3-1.4-.3-1.3 5c-1.8-4-6.5-6-10.8-4.4l.5 1.3c3.6-1.3 7.7.4 9 3.8zM117.4 183.8l5 1.1.3-1.3-7.3-1.7-2 7.3 1.4.3 1.3-5c1.8 4 6.5 6 10.8 4.4l-.4-1.3a7.1 7.1 0 0 1-9.1-3.8z" />
      </g>
      <g transform="rotate(45 -39 404.3)">
        <path d="M34 26.6v-4.9a2 2 0 0 0-2-2h-1.3v-4.3a3 3 0 0 0-3-3.1V9.6a3 3 0 0 0-3.1-3.1h-1.3V2.7c0-.8-.3-1.4-.8-2-.5-.4-1.2-.7-1.8-.7h-13A2.6 2.6 0 0 0 5 2.7v3.8H3.7c-2 0-3.7 1.7-3.7 3.8V33c0 .8.3 1.6 1 2.2a3 3 0 0 0 2 .9h24.7c1.7 0 3-1.4 3-3.1v-4.2H32c1 0 2-1 2-2.1zM24.6 8.4c.7 0 1.2.5 1.2 1.2v2.7h-2.5v-4h1.3zm-3.2-5.7v9.6H19V1.9h1.8c.2 0 .4 0 .5.2l.2.6zM7.7 1.9H17v10.4H6.9V2.7c0-.5.4-.8.8-.8zm-4 6.5h1.4v3.9H3.7c-1 0-1.9-.9-1.9-2 0-1 .9-2 2-2zM29 32.9c0 .7-.5 1.2-1.2 1.2H3c-.7 0-1.3-.5-1.3-1.2V13.6c.6.4 1.3.6 2 .6h23.9c.7 0 1.2.5 1.2 1.2v4.2h-4.6c-1.2 0-2.4.5-3.2 1.4a4.6 4.6 0 0 0 3.3 7.7H29v4.2zm3.3-6.3l-.2.2h-7.6a2.7 2.7 0 1 1-2-4.5c.5-.5 1.2-.8 2-.8H32s.2 0 .2.2v4.9z" />
        <ellipse cx="24.4" cy="24.3" rx="1" ry="1" />
      </g>
      <path d="M56.7 175.3a1 1 0 0 1 0 1.5l-9.2 9.4a5.5 5.5 0 0 1-7.8.1 5.6 5.6 0 0 1-.1-7.9l.3-.3a1 1 0 0 1 1.5 0c.4.3.4 1 0 1.4l-.3.4a3.5 3.5 0 0 0 1.5 6c1.3.2 2.6-.2 3.5-1.1l9.2-9.5a1 1 0 0 1 1.4 0zm16-15c6.7 7.3 7 18.3.6 25.9a1.7 1.7 0 0 1-2.9-.6A9.6 9.6 0 0 0 68 182c-1.7-1.7-3.5-2.5-4.5-2.5a1.9 1.9 0 0 1-2-1.9c0-1-.8-2.8-2.6-4.6-1.8-1.7-3.6-2.5-4.6-2.5-1 0-1.9-.8-1.9-1.9 0-1-.8-2.8-2.6-4.5-1-1-2.3-1.9-3.6-2.4a1.7 1.7 0 0 1-.7-2.8 19.5 19.5 0 0 1 25.8 0l.7-.8a1 1 0 0 1 1.4 0c.4.4.4 1 0 1.5l-.6.7zm-18.5 6.8c3.8-4.2 8.9-7 14.4-7.7-6.4-4.7-15-4.4-21.2.6 1.4.6 2.7 1.5 3.8 2.6 1.4 1.3 2.4 2.8 3 4.5zm9.2 9.2c6-5.9 6.9-12.6 7-15-2.5.1-9 1.1-14.8 7.3 1.8.6 3.4 1.6 4.8 3 1.3 1.3 2.4 2.9 3 4.7zm9-13.3a24.4 24.4 0 0 1-7.4 14.7c1.7.6 3.2 1.5 4.5 2.8 1.1 1.1 2 2.4 2.7 3.8 4.8-6.2 4.8-15 .1-21.3z" />
      <g transform="scale(-1 1) rotate(-35 151.1 438.6)">
        <path d="M31 16H30a12 12 0 0 1-1.9-2.2c-.2-.4-.3-.8-.2-1.3.1-.5.4-1 .7-1.5.6-.9.5-2-.3-2.7-.5-.5-1.2-.8-2-.7l-.7.2c-1.3.2-2.5.7-3.6 1.4h-5a1 1 0 0 0-.9 1c0 .5.5.9 1 .9h5.3c.2 0 .4 0 .6-.2a6.8 6.8 0 0 1 3.6-1.4h.3c.2.2.2.4.1.5-.5.6-.8 1.4-1 2.1-.2 1 0 2 .5 2.7.7 1 1.5 2 2.5 3l.6.2H31c.6 0 1 .4 1 1v3.6c0 .2 0 .4-.2.5a22.2 22.2 0 0 1-5.7 3.8c-.8.4-1.3 1-1.6 1.8l-1.6 5.1c0 .2-.2.3-.4.3h-2a.4.4 0 0 1-.4-.3l-.7-2.4c-.2-.5-.6-.8-1.2-.8h-5.5c-.5 0-1 .3-1.1.8l-.7 2.4c0 .2-.2.3-.4.3h-2a.4.4 0 0 1-.4-.3l-.3-.7c-1-3.2-2.5-6.2-4.4-9-2-3-2-6.8.3-9.7.2-.3.3-.6.1-1a1 1 0 0 0-1.7-.2c-2.7 3.6-2.8 8.4-.3 12C3.6 27.8 5 30.7 6 33.7l.2.7c.3 1 1.2 1.6 2.3 1.6h2c1 0 2-.7 2.2-1.7l.6-1.8h4.4l.5 1.8c.3 1 1.2 1.7 2.3 1.7h2c1 0 2-.7 2.2-1.6l1.6-5.1c.1-.3.4-.6.7-.7a24 24 0 0 0 6.2-4.1c.5-.5.8-1.2.8-2V19c0-.8-.3-1.5-.9-2a3 3 0 0 0-2.1-1z" />
        <path d="M7.2 16.2a4.8 4.8 0 0 0 6.5.3c1.9-1.6 2-4.3.3-6a4.8 4.8 0 0 0-6.5-.4c-.9.8-1.4 1.9-1.5 3 0 1.2.4 2.3 1.2 3.1zm1.6-4.7c.5-.4 1.2-.7 1.8-.7h.2c1.2 0 2.3 1 2.5 2.1.1 1.2-.6 2.4-1.8 2.8-1.2.4-2.5 0-3.1-1.1-.7-1-.5-2.3.4-3.1zM10.1 1a3.7 3.7 0 0 0-.2 5.4 4 4 0 0 0 4.2 1A3.8 3.8 0 0 0 16.6 4c.1-1.5-.8-3-2.2-3.6a4 4 0 0 0-4.3.6zm4 4.2a2 2 0 0 1-2.2.3c-.7-.3-1.2-1-1.1-1.8A2 2 0 0 1 12 2a2 2 0 0 1 2 .5c.8.8.7 2 0 2.7zM1.2 3.7C0 4.7-.3 6 .2 7.4a3.5 3.5 0 0 0 3.2 2.3h.1c1.6 0 3-1 3.4-2.5.5-1.5-.1-3.1-1.5-4-1.3-.7-3-.6-4.2.5zm3.5 3.7c-.6.6-1.5.6-2.1.1-.7-.4-.9-1.3-.6-2 .4-.7 1.2-1 2-.8.7.1 1.2.8 1.2 1.6 0 .4-.2.9-.5 1.1z" />
        <ellipse cx="24.1" cy="17.3" rx="1.1" ry="1" transform="rotate(-70.4 24 17.3)" />
      </g>
      <path d="M347.5 164.2c.6.7 1.5 1 2.5 1s1.8-.3 2.5-1l4.4-4.2a3.4 3.4 0 0 0 0-5l-.2-.2c-.7-.6-1.6-1-2.6-1s-1.8.4-2.5 1l-4.3 4.3a3.4 3.4 0 0 0 0 4.9l.2.2zm1.5-3.3l4.4-4.3c.2-.2.4-.3.7-.3.3 0 .6.1.8.3l.2.2c.4.4.4 1 0 1.4l-4.4 4.3a1 1 0 0 1-1.4 0l-.2-.2c-.5-.4-.5-1 0-1.4zm-2 7.2c0-.9-.3-1.8-1-2.4l-.2-.2a3.6 3.6 0 0 0-5 0L323 182.8a3.5 3.5 0 0 0 0 5l.2.2c.7.6 1.6 1 2.6 1s1.8-.4 2.5-1l17.7-17.4c.7-.6 1-1.5 1-2.5zm-2.7.8l-17.8 17.4c-.4.3-1 .3-1.5 0l-.2-.2a1 1 0 0 1 0-1.5l17.7-17.4c.2-.2.5-.3.8-.3.2 0 .5 0 .7.3l.3.2c.2.2.3.5.3.7 0 .3-.1.6-.3.8zm-16.4-9.2h.5a3 3 0 0 1 3 3v1c0 .4.4.8 1 .8h.2c.4 0 .8-.4.8-.9v-1a3 3 0 0 1 3.1-3h.5c.5 0 .9-.3.9-.8v-.1c0-.5-.4-.9-.9-.9h-.5a3 3 0 0 1-3-3v-1c0-.4-.5-.8-1-.8h-.2c-.5 0-.9.4-.9.8v1a3 3 0 0 1-3 3h-.5c-.5 0-.9.4-.9.8v.1c0 .6.4 1 .9 1zm3.7-2.6c.3.7.7 1.2 1.3 1.6-.6.5-1 1-1.3 1.7-.3-.7-.7-1.2-1.2-1.7.5-.4 1-1 1.2-1.6zm23 25.2h-.5a3 3 0 0 1-3.1-3v-1c0-.4-.4-.8-.9-.8h-.1-.2c-.4 0-.8.4-.8.9v1a3 3 0 0 1-3.1 3h-.5c-.5 0-.8.3-.8.8v.1c0 .5.3.9.8.9h.5a3 3 0 0 1 3 3v1c0 .4.5.8 1 .8h.2c.5 0 .9-.4.9-.8v-1a3 3 0 0 1 3-3h.5c.5 0 1-.4 1-.8v-.1c0-.6-.5-1-1-1zm-5.5 3.4c-.3-.6-.7-1.2-1.2-1.6.5-.4 1-1 1.2-1.6.4.6.8 1.2 1.3 1.6-.5.4-1 1-1.3 1.6zm10.5-17.2c0-.4-.4-.8-.9-.8h-.2c-.8 0-1.4-.5-1.4-1.2v-.4c0-.5-.3-.8-.8-.8h-.1c-.5 0-.9.3-.9.8v.4c0 .7-.6 1.2-1.3 1.2h-.2c-.5 0-.9.4-.9.8 0 .5.4.9.9.9h.2c.7 0 1.3.5 1.3 1.2v.4c0 .5.4.8.9.8.6 0 1-.3 1-.8v-.4c0-.7.5-1.2 1.3-1.2h.2c.5 0 .9-.4.9-.8zm-3.2.3l-.2-.1.2-.2.1.2-.1.1z" />
    </g>
  </g>
</svg>
