<svg xmlns="http://www.w3.org/2000/svg" width="63" height="63" viewBox="0 0 63 63">
  <path
    fill="#FFF"
    fill-rule="evenodd"
    d="M31.5 63a31.5 31.5 0 1 0 0-63 31.5 31.5 0 0 0 0 63zM48 24v19.3c0 1.8-1.4 3.2-3 3.2H18c-1.6 0-3-1.4-3-3.2V24c0-1.8 1.4-3.2 3-3.2h5.8l.8-2.2c.4-1.3 1.6-2.1 2.9-2.1h8c1.3 0 2.5.8 3 2l.7 2.3H45c1.7 0 3.1 1.4 3.1 3.2zm-8.8 9.6c0-4.4-3.4-8-7.7-8a7.9 7.9 0 0 0-7.7 8c0 4.5 3.4 8.1 7.7 8.1 4.3 0 7.7-3.6 7.7-8zm-2 0c0 3.3-2.6 6-5.7 6a5.8 5.8 0 0 1-5.7-6c0-3.2 2.6-5.9 5.7-5.9s5.7 2.7 5.7 6z"
  />
</svg>
