<svg
  xmlns="http://www.w3.org/2000/svg"
  xmlns:xlink="http://www.w3.org/1999/xlink"
  width="87"
  height="63"
  viewBox="0 0 87 63"
>
  <defs>
    <rect id="a" width="65" height="41" rx="2" />
    <filter id="b" width="156.9%" height="190.2%" x="-28.5%" y="-32.9%" filterUnits="objectBoundingBox">
      <feMorphology in="SourceAlpha" operator="dilate" radius="1" result="shadowSpreadOuter1" />
      <feOffset dy="5" in="shadowSpreadOuter1" result="shadowOffsetOuter1" />
      <feGaussianBlur in="shadowOffsetOuter1" result="shadowBlurOuter1" stdDeviation="5" />
      <feComposite in="shadowBlurOuter1" in2="SourceAlpha" operator="out" result="shadowBlurOuter1" />
      <feColorMatrix
        in="shadowBlurOuter1"
        values="0 0 0 0 0.0352941176 0 0 0 0 0.462745098 0 0 0 0 0.741176471 0 0 0 0.2 0"
      />
    </filter>
    <path
      id="d"
      d="M6.7 2.5H7c.2 0 .4 0 .5.2l.1.4-.1.4-.6.1h-.3v-1zm0-1.7H7c.6 0 .8.1.8.6 0 .2 0 .3-.2.4l-.5.1h-.5V.8zm-1-.7v3.5h-.3v.7h1.8c.6 0 .9 0 1.1-.3.2-.2.3-.5.3-.8a1 1 0 0 0-.5-.8c.5-.2.7-.6.7-1 0-.6-.1-1-.5-1.1C8 0 7.7 0 7.3 0H5.7zm8.9 0v2l-.1.4-.4.2-.4-.2-.2-.6V.1h-.8v2.6h-.4v.6h1V3c.3.3.6.5 1 .5s.7-.1.9-.3l.2-1v-2h-.8zm3.9 0c-.4 0-.6 0-.8.4l-.5 1h-.3V0H16V4h-.3v.6h1.2V2.2h.3l.6 1.1h.9L17.9 2l.6-1c0-.2.1-.3.2-.3l.3.1V.3a.8.8 0 0 0-.5-.2zM4.7 0c-.2 0-.4 0-.5.2L4 .8V2l-.1.5-.4.2-.4-.2V0h-1v2.4l-.4.2-.4-.2-.1-.6V.1H.4v2.6H0v.6h1V3c.3.3.6.5 1 .5s.7-.2 1-.4c0 .1.3.4.9.4.4 0 .7-.2.9-.4l.1-.8V.8l.2-.2.2.1V.3a1 1 0 0 0-.6-.2zm5.9 1.6c-.4 0-.5-.2-.5-.6 0-.3.1-.5.4-.5.2 0 .3 0 .4.2v.8h-.3zM10.3 0c-.7 0-1.1.4-1.1 1 0 .8.4 1.2 1.2 1.2l.6-.1-.1.5-.5.2a2 2 0 0 1-1-.3v.7l1.1.2c.5 0 .8-.1 1-.4.3-.2.3-.4.3-.8V.8c0-.1 0-.2.2-.2l.2.1V.3a1 1 0 0 0-.6-.2c-.2 0-.4.1-.5.3a1 1 0 0 0-.8-.3z"
    />
  </defs>
  <g fill="none" fill-rule="evenodd" transform="translate(11 6)">
    <mask id="c" fill="#fff">
      <use xlink:href="#a" />
    </mask>
    <use fill="#000" filter="url(#b)" xlink:href="#a" />
    <rect width="66" height="42" x="-.5" y="-.5" fill="#FFF" stroke="#E8E8E8" rx="2" />
    <g mask="url(#c)">
      <path
        fill="#CC0915"
        d="M62 6.6h.6v6.8h1v1.4H65v29H51.8v-29h1.4v-1.4h2.4v-.7h5.6v.7h.9V6.6zM34.2 18.5h6.7v.9h1.8v1.2H44v23H32.2v-23h1.1v-1.2h.8v-1zm-12-1.3h.8v26.5H15V17.2h4v-1h3.2v1z"
      />
      <path
        fill="#20A134"
        d="M32.1 41.7v-1h-3.5V24.4h.3V24h-.3v-.2h.3v-.4h-.3v-.6a2.4 2.4 0 0 0 0-4.6v-2.7h.2v-.3h-.5v-.8h.2V14H28v-1h.3v-.4H28v-2.3h.3v-.3H28V7.9h.3v-.3H28V2h-.3v5.6h-.4V8h.4v2.2h-.4v.3h.4v2.3h-.4v.3h.4v1h-.5v.4h.2v.8h-.5v.3h.2v2.7a2.4 2.4 0 0 0 0 4.6v.6h-.3v.4h.3v.2h-.3v.4h.3v16.3h-3.6v1h-1.7v2h12v-2h-1.7z"
      />
      <path
        fill="#0976BD"
        d="M55 35.1h-.5v-.5h-.3V34h-.4v-1.4h.3V32h-.5v-2.4h.2V29h-.2V27.3c0-1.2-1-2.3-2.2-2.5v-1.6h-.6v1.6a2.5 2.5 0 0 0-2.2 2.5V29.1h-.3v.5h.3V32H48v.6h.3V34H48v.6h-2.5v-.8h.9V33h-.9v-6.2h.9V26h-.9V25c0-2.2-1.5-4-3.5-4.5v-1.8h-.8v-2.4h.4v-.4h-.4V14h-.4v1.7h-.4v.4h.4v2.4H40v1.8c-2 .5-3.5 2.3-3.5 4.5V26h-.9v.8h.9V33h-.9v.8h.9v.8H34V34h-.3v-1.4h.3V32h-.6v-2.4h.3V29h-.3V27.3c0-1.2-1-2.3-2.2-2.5v-1.6h-.6v1.6a2.5 2.5 0 0 0-2.2 2.5V29.1h-.2v.5h.2V32H28v.6h.3V34h-.4v.6h-.3v.5H27v.9h.5v9.3h27V36h.5v-.9z"
      />
      <path
        fill="#F39100"
        d="M65.6 23v-1.2h-1.5V21h-5.9v1h-.7V23h-1v22.4h10.4V23zM20.9 30.2v-3.8h-1.4v-2.2h-.7v-1.9h-1V22h-1.2v-4.6h-.3V22h-.5v.3h-.4v2H15v21.1H24.3V33z"
      />
      <path
        fill="#FFF"
        d="M15 47h50.1v-9H15zM37.4 25.6l.2-.2v.2h-.2zm1-.4l.2.2.2.2h-.3v-.4zm1 .4v-.3.3zm.5-.3l.1.3v-.3zm.8 0h.2v-.1.4h-.3l.1-.2zm1 .1l.3.2h-.3v-.2zm8.4 2.2v-.3h-.6v-1h.5v-.4h-7.2v-.3h-.4v-.3l.4-.3h.3v.3l-.1.2h-.1v.2h.2l.1-.4v-.5H43v-.5l-.2-.3v-.3H43.2V23h.1v-.2H43v-.1h-.2l-.4.5-.2.5v.3h-.1l-.5.4v.1l-.2.2v.2l-.1.2v.2l.1.1v.1h-.4v-1.2L41 24v-.2h.1v-.1l.2-.3V23h-.2v-.2H41l-.3.3-.2.4v.4l-.4.4-.2.3v.1-2.2c.2 0 .4-.3.4-.5 0-.3-.2-.5-.4-.6v-.1h-.1v-.5l.3-.3v-.3H40s0 .3-.2.3l-.1-.2v.2h-.1l-.2-.3v.3l.2.3v.4h-.1v.2c-.2.1-.4.3-.4.6 0 .2.2.4.4.5v2.2-.1l-.2-.3-.3-.4-.1-.2v-.2l-.2-.4-.2-.2H38V23.6l.1.2.1.2.1.1v.1l-.1.3V25.6h-.4l.1-.2v-.2l-.1-.2v-.2l-.2-.2v-.1l-.5-.4v-.3l-.3-.5-.4-.4-.2-.1v.1h-.1v.7l.2.1h.1v.3l-.2.3v.4l-.1.1v.9h.4v-.2h-.1l-.2-.2V25h.3l.3.4v-.1h.1v.3h-.4v.3h-7.2v.3h.5v1h-.6v.4h-.5v.5h.5v1.2h.3v1.2h.7v6.6h-.5v.9H32v-.9h-.6v-6.6h2.2v6.6h-.5v.9h2.2v-.9h-.6v-6.6H37v6.6h-.5v.9h2.2v-.9H38v-6.6h3.4v6.6h-.6v.9H43v-.9h-.5v-6.6h2.2v6.6H44v.9h2.2v-.9h-.5v-6.6H48v6.6h-.6v.9h2.2v-.9h-.5v-6.6h.7v-1.2h.3v-1.2h.5v-.5H50z"
      />
      <path d="M15 47h50.1V16H15z" />
      <path
        fill="#FFF"
        d="M19.4 34.8h.4v-1.5h-.4v1.5zm2.2 0h.4v-1.5h-.4v1.5zm-.7 0h.3v-1.5H21v1.5zm-.8 0h.4v-1.5H20v1.5zm4.5 2.6H23v-1.5h.2v-.5h-.4v-.3h-.3v-.3h-.2v-1.5h.3v-.2h.3v-.4H22v-.3h-.4V32H21V25h.4v-2.2h-.7v-.4l.4-.1v-.3l-.3-.1v-.4h.2V21h-.2v-.4s.6-.3.6-.7v-.4h-.2s-.1.5-.3.5h-.1s0-.4-.2-.4-.2.4-.2.4h-.2l-.2-.5h-.2v.4c0 .4.5.7.5.7v.3h-.1v.4h.2v.4h-.3v.4l.3.1v.4h-.6V25h.4V32h-.5v.4h-.5v.3h-.8v.4h.3v.2h.2v1.5h-.2v.3h-.3v.3h-.4v.5h.3v1.5h-1.7v.3h.4v.4h7.1v-.4h.4v-.3zM63.4 38V20.2h-1.1v-1.5h-3V16l-1.4 2.8h-4.2V38z"
      />
    </g>
    <g mask="url(#c)">
      <path
        fill="#CC0915"
        d="M9 25.5h1.6v.8H12v17.4H-1.2V26.3H.2v-.8h2.4V25h5.6v.5h.9zm-27.9 3h6.7v.6h1.8v.7H-9v13.9h-11.9V29.8h1.1v-.7h.8v-.6zm-12-.8h.8v16H-38v-16h4v-.6h3.2v.6z"
      />
      <path
        fill="#0976BD"
        d="M2 35.1h-.5v-.5h-.3V34H.9v-1.4H1V32H.6v-2.4h.2V29H.6V27.3c0-1.2-1-2.3-2.2-2.5v-1.6h-.6v1.6a2.5 2.5 0 0 0-2.2 2.5V29.1h-.3v.5h.3V32H-5v.6h.3V34H-5v.6h-2.5v-.8h.9V33h-.9v-6.2h.9V26h-.9V25c0-2.2-1.5-4-3.5-4.5v-1.8h-.8v-2.4h.4v-.4h-.4V14h-.4v1.7h-.4v.4h.4v2.4h-.8v1.8c-2 .5-3.5 2.3-3.5 4.5V26h-.9v.8h.9V33h-.9v.8h.9v.8H-19V34h-.3v-1.4h.3V32h-.6v-2.4h.3V29h-.3V27.3c0-1.2-1-2.3-2.2-2.5v-1.6h-.6v1.6a2.5 2.5 0 0 0-2.2 2.5V29.1h-.2v.5h.2V32h-.5v.6h.3V34h-.4v.6h-.3v.5h-.5v.9h.5v9.3h27V36H2v-.9z"
      />
      <path fill="#F39100" d="M12.6 23v-1.2h-1.5V21H5.2v1h-.7V23h-.9v22.4h10.3V23z" />
      <path
        fill="#FFF"
        d="M-31.2 47h50.1v-9h-50.1zM-15.6 25.6l.2-.2v.2h-.2zm1-.4l.2.2.2.2h-.3v-.4zm1 .4v-.3.3zm.5-.3l.1.3v-.3zm.8 0h.2v-.1.4h-.3l.1-.2zm1 .1l.3.2h-.3v-.2zm8.4 2.2v-.3h-.6v-1h.5v-.4h-7.2v-.3h-.4v-.3l.4-.3h.3v.3l-.1.2h-.1v.2h.2l.1-.4v-.5h-.2v-.5l-.2-.3v-.3H-9.8V23h.1v-.2h-.1v-.1h-.2l-.4.5-.2.5v.3h-.1l-.5.4v.1l-.2.2v.2l-.1.2v.2l.1.1v.1h-.4v-1.2l-.1-.3v-.2h.1v-.1l.2-.3V23h-.2v-.2h-.2l-.2.3-.2.4v.4l-.4.4-.2.3v.1-2.2c.2 0 .4-.3.4-.5 0-.3-.2-.5-.4-.6v-.1h-.1v-.5l.3-.3v-.3h-.1l-.1.3h-.1l-.1-.2v.2h-.1l-.2-.3v.3l.2.3v.4h-.1v.2c-.2.1-.4.3-.4.6 0 .2.2.4.4.5v2.2-.1l-.2-.3-.3-.4-.1-.2v-.2l-.2-.4-.2-.2h-.4V23.6l.1.2.1.2.1.1v.1l-.1.3V25.6h-.4l.1-.2V24.8l-.3-.2v-.1l-.5-.4v-.3l-.3-.5-.4-.4-.2-.1v.1h-.1v.7l.2.1h.1v.3l-.2.3v.4l-.1.1v.9h.4v-.2h-.1l-.2-.2V25h.3l.3.4v-.1h.1v.3h-.4v.3h-7.2v.3h.5v1h-.6v.4h-.5v.5h.5v1.2h.3v1.2h.7v6.6h-.5v.9h2.2v-.9h-.6v-6.6h2.2v6.6h-.5v.9h2.2v-.9h-.6v-6.6h2.3v6.6h-.6v.9h2.2v-.9h-.6v-6.6h3.4v6.6h-.6v.9h2.2v-.9h-.5v-6.6h2.2v6.6H-9v.9h2.2v-.9h-.5v-6.6H-5v6.6h-.6v.9h2.2v-.9h-.5v-6.6h.7v-1.2h.3v-1.2h.5v-.5H-3z"
      />
      <path d="M-35.5 47h50.1V16h-50.1z" />
      <path fill="#FFF" d="M15.1 38V20.2h-1.2v-1.5h-3V16l-1.3 2.8H5.4V38z" />
    </g>
    <ellipse cx="53" cy="34.5" fill="#FFF" mask="url(#c)" rx="3" ry="3.5" />
    <path fill="#FFF" d="M51 37h9v2h-9z" mask="url(#c)" />
    <g mask="url(#c)">
      <path
        fill="#000"
        fill-rule="nonzero"
        d="M52.7 39v-.5c0-.1-.1-.2-.3-.2H52 51.5v.7h.2v-.4l.1-.2c.1 0 .2 0 .2.2v.4h.2v-.4l.1-.2c.1 0 .2 0 .2.2v.4h.2zm2.3-.7h-.3V38h-.1v.3h-.2v.1h.2v.3c0 .2 0 .3.2.3h.2v-.2H54.7v-.4h.3v-.1zm1.3 0H56v.7h.2v-.4l.1-.2h.1v-.1zm-2 0H54c-.2 0-.3 0-.3.2 0 .1.1.2.3.2h.2c0 .1 0 .2-.2.2l-.2-.1-.1.1.3.1c.2 0 .3 0 .3-.2s0-.2-.2-.2l-.2-.1.1-.1H54.3zm4.2 0H58.2v.7h.1v-.4c0-.1 0-.2.2-.2l.1-.1zm-2 .3c0 .3.2.4.4.4h.2v-.2h-.2c-.1 0-.2 0-.2-.2 0-.1 0-.2.2-.2h.2l-.2-.1c-.2 0-.4.1-.4.3zm1.5 0v-.3h-.2-.2c-.2 0-.4.1-.4.3 0 .3.2.4.4.4h.4v-.4zm-.6 0c0-.1 0-.2.2-.2l.2.2c0 .2 0 .3-.2.3-.1 0-.2-.1-.2-.3zm-2-.3c-.1 0-.3.1-.3.3 0 .3.2.4.4.4h.3v-.2h-.3l-.2-.1h.5c0-.3-.1-.4-.3-.4zm0 0c.2 0 .3.2.3.3h-.4c0-.1 0-.2.2-.2zm4 .3V38h-.1v.4l-.3-.1c-.2 0-.3.1-.3.3 0 .3.1.4.3.4h.4v-.4zm-.6 0c0-.1.1-.2.3-.2l.2.2c0 .2-.1.3-.2.3-.2 0-.3-.1-.3-.3zm-5.3 0v-.3h-.1-.2c-.2 0-.4.1-.4.3 0 .3.2.4.4.4H53.5v-.4zm-.5 0c0-.1 0-.2.2-.2l.2.2c0 .2 0 .3-.2.3s-.2-.1-.2-.3z"
      />
      <g fill-rule="nonzero">
        <path fill="#FF5F00" d="M54.3 32.7h2.4V37h-2.4z" />
        <path
          fill="#EB001B"
          d="M54.4 34.8c0-.8.4-1.6 1-2.1-.4-.4-1-.6-1.6-.6a2.7 2.7 0 0 0-2.7 2.7c0 1.6 1.2 2.8 2.7 2.8.6 0 1.2-.2 1.7-.6-.7-.5-1-1.3-1-2.2z"
        />
        <path
          fill="#F79E1B"
          d="M59.9 34.8c0 1.6-1.2 2.8-2.8 2.8-.6 0-1.2-.2-1.6-.6.6-.5 1-1.3 1-2.2 0-.8-.4-1.6-1-2.1.4-.4 1-.6 1.6-.6 1.6 0 2.8 1.2 2.8 2.7z"
        />
      </g>
    </g>
    <g fill="#000" fill-rule="nonzero" mask="url(#c)">
      <path d="M62 5.8c-.1 0-.1-.2 0-.2.8-1 .8-2.4 0-3.3V2h.1c1 1 1 2.8 0 3.8zm-.5-.4c.4-.4.6-1 .6-1.5s-.2-1-.6-1.4h-.2v.2a1.8 1.8 0 0 1 0 2.4.2.2 0 0 0 0 .3h.2zm-.6-.5c.2-.2.4-.6.4-1s-.2-.7-.4-1h-.2v.2c.2.3.3.5.3.8 0 .3-.1.6-.3.8a.2.2 0 0 0 0 .3h.2zm-.7-.4c.3-.3.3-.8 0-1.1H60v.2c.2.2.2.5 0 .7a.2.2 0 0 0 .1.2h.1z" />
    </g>
    <g mask="url(#c)">
      <g transform="matrix(1 0 0 -1 4 8.8)">
        <mask id="e" fill="#fff">
          <use xlink:href="#d" />
        </mask>
        <use fill="#1F1A15" fill-rule="nonzero" xlink:href="#d" />
        <g fill-rule="nonzero" mask="url(#e)">
          <path fill="#E41509" d="M1 11.5H-9.8V-7.8H1z" />
          <path fill="#F39100" d="M11.3-7.8H2.5v19.3h8.8z" />
          <path fill="#CC0915" d="M17.4-7.8h-6v19.3h6z" />
          <path fill="#20A134" d="M28.8-7.8H19v19.3h9.8z" />
          <path fill="#0976BD" d="M19-7.8h-1.6v19.3H19z" />
          <path fill="#1F1A15" d="M2.5-7.8H1v19.3h1.5z" />
        </g>
      </g>
      <path
        fill="#1F1A15"
        d="M9.3 11v.2H8l.1.5H9l.3-.1v.4a1 1 0 0 1-.4.1H8a.9.9 0 0 1-.6-.6v-.4-.5l.2-.3.3-.2.4-.1h.4a.8.8 0 0 1 .5.6v.4zm-.6-.1v-.4l-.4-.1-.2.1-.2.4h.8zm3 1.2a.7.7 0 0 1-.4 0h-.2L11 12l-.3.2a1 1 0 0 1-.3 0l-.6-.1-.2-.3V10h.6v1.6l.3.1h.2a.4.4 0 0 0 .2-.2V10h.6v1.7h.2v.4zm1.5-1.6H13h-.4v.2l-.1.3V12H12v-1.7h-.2V10h.6v.3l.3-.2a.6.6 0 0 1 .5 0v.4zm2 .6c0 .3 0 .6-.2.8-.2.2-.4.3-.7.3-.4 0-.6-.1-.8-.3-.2-.2-.3-.5-.3-.8 0-.3.1-.6.3-.8.2-.2.4-.3.8-.3.3 0 .5.1.7.3.2.2.3.5.3.8zm-.5 0v-.3l-.1-.3h-.2l-.1-.1c-.2 0-.3 0-.4.2v1l.2.1h.5v-.3-.3zm2.9 0l-.1.5-.3.4a1 1 0 0 1-.7.2 1.9 1.9 0 0 1-.3 0v.8h-.6v-2.6h-.2V10h.6v.3l.3-.2.4-.1h.4l.3.3.1.3v.5zm-.6 0l-.1-.5-.3-.2h-.2l-.1.2-.1.1v1.1h.5l.2-.2v-.2-.3zm2.6-.1v.2h-1.3c0 .2 0 .4.2.5h.7l.3-.1v.4a1 1 0 0 1-.3.1h-.9a.9.9 0 0 1-.5-.6v-.4-.5l.2-.3.3-.2.4-.1h.4a.8.8 0 0 1 .5.6v.4zm-.5-.1l-.1-.4-.3-.1-.3.1-.1.4h.8z"
      />
    </g>
  </g>
</svg>
