<svg
  xmlns="http://www.w3.org/2000/svg"
  xmlns:xlink="http://www.w3.org/1999/xlink"
  width="93"
  height="98"
  viewBox="0 0 93 98"
>
  <defs>
    <circle id="a" cx="39.7" cy="39.7" r="39.7" />
    <filter id="b" width="147.3%" height="143.8%" x="-23.6%" y="-15.6%" filterUnits="objectBoundingBox">
      <feOffset dy="5" in="SourceAlpha" result="shadowOffsetOuter1" />
      <feGaussianBlur in="shadowOffsetOuter1" result="shadowBlurOuter1" stdDeviation="5" />
      <feColorMatrix
        in="shadowBlurOuter1"
        result="shadowMatrixOuter1"
        values="0 0 0 0 0.0352941176 0 0 0 0 0.462745098 0 0 0 0 0.741176471 0 0 0 0.2 0"
      />
      <feMerge>
        <feMergeNode in="shadowMatrixOuter1" />
        <feMergeNode in="SourceGraphic" />
      </feMerge>
    </filter>
    <path
      id="c"
      d="M36.2 32.2s-10.8 9-14.5 11.7a15.5 15.5 0 0 1-17.6.5l.3-.6c1.8-4.4 2-9.3.4-13.8L.1 17.9 3.8 7.5C4.3 6 5.8 5.4 7 5.8c.7.3 1.2.7 1.5 1.3.3.7.4 1.5.1 2l-3.2 9.1c-.1.6.1 1.2.7 1.5h.3c.5 0 .9-.2 1-.7l3.3-9v-.2l2.3-6.1c.5-1.5 2-2.2 3.4-1.7.6.2 1.1.7 1.5 1.3a3 3 0 0 1 0 2.1v.3l-4.5 12.9c-.1.5.1 1.2.7 1.4l.4.1c.4 0 .9-.3 1-.7l4.7-13.2 1.3-3.7c.6-1.4 2-2.1 3.4-1.7.6.3 1.2.7 1.5 1.4.3.6.4 1.4.1 2l-2 5.3-.1.5-.1.2-4 11c-.2.5 0 1.1.6 1.4h.4c.4 0 .8-.2 1-.6l4.2-11.6c.6-1.2 2.1-2 3.3-1.5.6.3 1.1.7 1.5 1.3.3.7.4 1.5 0 2l-5.8 16-2.3.9c-5.6-2.1-8.6.3-11.1 2.3-.4.4-.5 1-.2 1.5.4.5 1 .5 1.5.2 2.4-2 4.7-3.8 9.4-1.9.2.1.5.1.8 0l8.5-3.4c1.2-.4 3.3-1 4.4.6 1 1.2.8 3-.4 3.8z"
    />
  </defs>
  <g fill="none" fill-rule="evenodd">
    <use fill="#F6F6F6" transform="translate(7 6)" xlink:href="#a" />
    <g filter="url(#b)" transform="translate(10 4)">
      <path
        fill="#FFF"
        fill-rule="nonzero"
        d="M29.7 66.3A15 15 0 0 1 15.5 65 654.7 654.7 0 0 1 1 53.6a2.9 2.9 0 0 1-.6-3.8c.3-.6 1-1 1.7-1 .7-.2 1.3 0 1.8.4h.1l6.7 4c.3.3.9.2 1.2 0 .4-.3.5-.8.3-1.3L4.7 33c-.5-1.4.1-3 1.5-3.5.5-.2 1.1-.2 1.7.1.7.3 1.2.8 1.5 1.4l4 10.3c.2.5.7.8 1 .8l.4-.1c.5-.2.8-1 .6-1.5l-4-10v-.3l-2.1-5.5c-.6-1.4 0-3 1.4-3.4.6-.3 1.3-.3 2 0 .6.2 1.1.8 1.4 1.5l1.4 3.7 4.6 12c.2.4.6.7 1 .7h.3c.6-.3.8-1 .7-1.5L17.6 26v-.3c-.6-1.4 0-3 1.4-3.5.6-.2 1.3-.2 2 0 .5.3 1 .8 1.3 1.5l2.4 6 .1.3 3.2 8.4c.2.5 1 .8 1.4.6.6-.2.8-.9.7-1.4l-3.3-8.4c-.6-1.5 0-3 1.4-3.5.6-.3 1.3-.3 2 0 .6.3 1.1.8 1.4 1.5l7 18.5c3 8.3-.9 17.4-8.9 20.6z"
      />
      <g transform="translate(36 15)">
        <mask id="d" fill="#fff">
          <use xlink:href="#c" />
        </mask>
        <use fill="#FFF" xlink:href="#c" />
        <g fill-rule="nonzero" mask="url(#d)">
          <path fill="#E41509" d="M-.4 44.6l-11.8-4.3L5.5-8.5 17.4-4z" />
          <path fill="#F39100" d="M28.2-.2l-9.9-3.6L.6 45l9.8 3.6z" />
          <path fill="#CC0915" d="M35 2.3L28.2-.2 10.4 48.6l6.9 2.5z" />
          <path fill="#20A134" d="M46.9 6.6L36 2.6 18.3 51.5l10.8 4z" />
          <path fill="#0976BD" d="M37 3l-2-.7L17.3 51l2 .7z" />
          <path fill="#1F1A15" d="M19.3-3.4l-2-.7L-.3 44.6l2 .7z" />
        </g>
      </g>
      <path
        fill="#0976BD"
        fill-rule="nonzero"
        d="M11.6 11.5L17 15l.6.2c.4 0 .7-.2.9-.5.4-.6.2-1.2-.4-1.5l-5.5-3.6c-.5-.4-1.1-.2-1.5.4-.3.5-.2 1.1.4 1.5z"
      />
      <path
        fill="#20A134"
        fill-rule="nonzero"
        d="M24.6 10.6c.1.4.5.7 1 .7l.4-.1c.5-.2.9-.8.7-1.4l-3-8.8c-.2-.6-.8-1-1.5-.7-.5.1-.8.8-.7 1.4l3 8.9z"
      />
      <path
        fill="#CC0915"
        fill-rule="nonzero"
        d="M34.2 9.8h.3c.5 0 .9-.2 1-.6L37.7 3c.2-.5 0-1.1-.6-1.4-.5-.2-1.2 0-1.4.6l-2.3 6.2c-.1.6.2 1.2.8 1.4z"
      />
      <path
        fill="#E41509"
        fill-rule="nonzero"
        d="M42 71.1c-.6-.2-1.2.2-1.4.7L38.8 78c-.2.6.2 1.2.7 1.4h.3c.5 0 1-.2 1.1-.7l1.9-6.3c0-.5-.2-1.1-.8-1.3z"
      />
      <path
        fill="#F39100"
        fill-rule="nonzero"
        d="M51.2 69.5c-.2-.5-.9-.8-1.4-.6-.5.3-.8.9-.6 1.4l3.5 8.6c.2.5.7.7 1 .7h.5c.5-.3.8-1 .6-1.5l-3.6-8.6z"
      />
      <path
        fill="#E41509"
        fill-rule="nonzero"
        d="M64.2 67.4l-5.7-3.2c-.5-.3-1.1-.1-1.5.4-.3.6 0 1.2.4 1.5l5.7 3.2.6.2c.3 0 .7-.2 1-.5.2-.6 0-1.3-.5-1.6z"
      />
    </g>
  </g>
</svg>
