<svg
  xmlns="http://www.w3.org/2000/svg"
  xmlns:xlink="http://www.w3.org/1999/xlink"
  width="80"
  height="84"
  viewBox="0 0 80 84"
>
  <defs>
    <circle id="a" cx="39.7" cy="39.7" r="39.7" />
    <filter id="b" width="159.3%" height="158.3%" x="-29.7%" y="-20.8%" filterUnits="objectBoundingBox">
      <feOffset dy="5" in="SourceAlpha" result="shadowOffsetOuter1" />
      <feGaussianBlur in="shadowOffsetOuter1" result="shadowBlurOuter1" stdDeviation="5" />
      <feColorMatrix
        in="shadowBlurOuter1"
        result="shadowMatrixOuter1"
        values="0 0 0 0 0.0352941176 0 0 0 0 0.462745098 0 0 0 0 0.741176471 0 0 0 0.2 0"
      />
      <feMerge>
        <feMergeNode in="shadowMatrixOuter1" />
        <feMergeNode in="SourceGraphic" />
      </feMerge>
    </filter>
    <path
      id="c"
      d="M9 31.3l-1.6-1.6-2 .1c-2.1.2-4-1-4.5-3L.2 24c-.6-2 .4-4 2.2-5l2-.8c.2-1.5.6-3 1.1-4.3l-1.2-1.7c-1.2-1.7-1-4 .5-5.4l2-2a4.2 4.2 0 0 1 5.4-.5l1.7 1.2c1.4-.6 2.8-1 4.3-1.1l1-2C20 .6 22-.4 24 .1l2.8.8c2 .5 3.2 2.4 3 4.4l-.1 2.1c1.2 1 2.2 2 3.1 3.2l2.1-.2c2-.2 4 1.1 4.5 3l.7 2.8c.6 2-.4 4.1-2.3 5l-2 .9c-.1 1.4-.5 2.9-1 4.2l1.2 1.8c1.1 1.6 1 4-.5 5.4l-2 2a4.2 4.2 0 0 1-5.4.4l-1.8-1.2c-1.3.6-2.8 1-4.3 1.2l-.9 2c-.8 1.8-2.9 2.7-4.9 2.2l-2.7-.7c-2-.6-3.3-2.4-3.1-4.5l.2-2.1a16 16 0 0 1-1.7-1.5zM28.7 13c-1.1 0-1.9.3-2.3 1-.4.4-.5 1.1-.5 2.1v5.2c0 .8 0 1.4-.4 1.8-.3.5-.9.7-1.5.7a2 2 0 0 1-1.7-.7c-.3-.5-.5-1.2-.5-2.3v-7.6h-3.6v8c0 1 0 1.5-.4 2-.4.4-1 .6-1.6.6a2 2 0 0 1-1.6-.7c-.4-.5-.5-1.2-.5-2.3v-7.6h-3.7v10.6H9v2.7h3.7l.6-1.6a4.8 4.8 0 0 0 4 1.8c1.8 0 3-.6 3.8-1.7h.1c.5.7 1.7 1.7 3.9 1.7 1.7 0 3-.6 3.8-1.7.5-.7.7-1.7.7-3.2v-5.5c0-.7.3-.8.6-.8s.7.2 1 .4v-2.2c-.5-.3-1.4-.7-2.4-.7z"
    />
  </defs>
  <g fill="none" fill-rule="evenodd">
    <use fill="#F6F6F6" xlink:href="#a" />
    <g filter="url(#b)" transform="translate(10 10)">
      <path
        fill="#FFF"
        fill-rule="nonzero"
        d="M50.4 50.4l-.2.1H54a1.6 1.6 0 1 1 0 3.3h-7.7c-1 0-1.7-.8-1.7-1.7v-7.7a1.6 1.6 0 1 1 3.3 0v3.9l.2-.2A26.3 26.3 0 0 0 29.5 3.2a1.6 1.6 0 0 1 0-3.2 29.5 29.5 0 0 1 20.9 50.4zM0 29.5A29.5 29.5 0 0 0 29.5 59a1.6 1.6 0 1 0 0-3.2 26.3 26.3 0 0 1-18.4-45v3.8a1.6 1.6 0 0 0 3.2 0V7c0-1-.7-1.7-1.6-1.7H5a1.6 1.6 0 0 0 0 3.3h4l-.3.1C3.1 14.2 0 21.6 0 29.5z"
      />
      <circle cx="31" cy="30" r="14" fill="#FFF" stroke="#979797" />
      <g transform="matrix(1 0 0 -1 10 50)">
        <mask id="d" fill="#fff">
          <use xlink:href="#c" />
        </mask>
        <use fill="#FFF" xlink:href="#c" />
        <g fill-rule="nonzero" mask="url(#d)">
          <path fill="#E41509" d="M10.9 41H-.9V-1h11.8z" />
          <path fill="#F39100" d="M22.1-1h-9.5v42h9.5z" />
          <path fill="#CC0915" d="M28.9-1h-6.8v42h6.8z" />
          <path fill="#20A134" d="M41.3-1H30.5v42h10.8z" />
          <path fill="#0976BD" d="M30.5-1h-1.6v42h1.6z" />
          <path fill="#1F1A15" d="M12.6-1h-1.7v42h1.7z" />
        </g>
      </g>
    </g>
  </g>
</svg>
