<svg
  xmlns="http://www.w3.org/2000/svg"
  xmlns:xlink="http://www.w3.org/1999/xlink"
  width="80"
  height="80"
  viewBox="0 0 80 80"
>
  <defs>
    <circle id="a" cx="39.7" cy="39.7" r="39.7" />
    <path
      id="d"
      d="M39.7 9l-7.9-7.8C31 .4 30 0 28.8 0H4.3C2 0 0 2 0 4.2v42.6C0 49 2 51 4.3 51h32.4c2.3 0 4.3-2 4.3-4.2V12c0-1.2-.5-2.2-1.3-3z"
    />
    <filter id="c" width="185.4%" height="168.6%" x="-42.7%" y="-24.5%" filterUnits="objectBoundingBox">
      <feOffset dy="5" in="SourceAlpha" result="shadowOffsetOuter1" />
      <feGaussianBlur in="shadowOffsetOuter1" result="shadowBlurOuter1" stdDeviation="5" />
      <feColorMatrix
        in="shadowBlurOuter1"
        values="0 0 0 0 0.0352941176 0 0 0 0 0.462745098 0 0 0 0 0.741176471 0 0 0 0.2 0"
      />
    </filter>
    <path
      id="e"
      d="M45 35c-.7 0-1.2.2-1.5.6-.2.3-.4.8-.4 1.4v3.4c0 .6 0 1-.2 1.3-.2.2-.6.4-1 .4-.5 0-.9-.2-1.1-.5-.2-.3-.3-.7-.3-1.5v-5H38v5.3c0 .6 0 1-.3 1.3-.2.2-.6.4-1 .4s-.8-.2-1-.5c-.3-.3-.4-.7-.4-1.5v-5H33v7h-1v1.7h2.4l.4-1c.6.8 1.6 1.2 2.7 1.2s2-.4 2.5-1.1c.4.4 1.1 1.1 2.5 1.1 1.2 0 2-.4 2.5-1.1.4-.5.5-1.1.5-2.1v-3.6c0-.5.2-.5.4-.5s.5 0 .6.2h.1v-1.4c-.4-.3-1-.5-1.6-.5z"
    />
  </defs>
  <g fill="none" fill-rule="evenodd">
    <mask id="b" fill="#fff">
      <use xlink:href="#a" />
    </mask>
    <use fill="#F6F6F6" xlink:href="#a" />
    <g mask="url(#b)">
      <g transform="translate(19 14)">
        <use fill="#000" filter="url(#c)" xlink:href="#d" />
        <use fill="#FFF" xlink:href="#d" />
        <path
          fill="#FFF"
          fill-rule="nonzero"
          d="M39.7 9l-7.9-7.8C31 .4 30 0 28.8 0H4.3C2 0 0 2 0 4.2v42.6C0 49 2 51 4.3 51h32.4c2.3 0 4.3-2 4.3-4.2V12c0-1.2-.5-2.2-1.3-3zm-1.6 37.8c0 .7-.6 1.4-1.4 1.4H4.3c-.8 0-1.4-.7-1.4-1.4V4.2c0-.7.6-1.4 1.4-1.4h24.2v8c0 .8.7 1.4 1.5 1.4H38v34.6z"
        />
        <path fill="#E8E8E8" d="M31.4 4.8l4.7 4.6h-4.7z" />
        <rect width="6" height="3" x="5" y="24" fill="#E8E8E8" rx="1.5" />
        <rect width="7" height="3" x="29" y="25" fill="#E8E8E8" rx="1.5" />
        <rect width="31" height="3" x="5" y="15" fill="#E8E8E8" rx="1.5" />
        <rect width="20" height="3" x="5" y="7" fill="#E8E8E8" rx="1.5" />
        <rect width="20" height="3" x="5" y="33" fill="#E8E8E8" rx="1.5" />
        <rect width="12" height="3" x="5" y="42" fill="#E8E8E8" rx="1.5" />
        <path
          fill="#20A134"
          fill-rule="nonzero"
          d="M32.3 34.4l-7.7 7.2-3.6-3.3c-.5-.6-1.4-.6-2 0-.6.5-.6 1.3 0 1.9l4.6 4.2c.3.3.6.4 1 .4s.7-.1 1-.4l8.8-8.1c.6-.5.6-1.4 0-1.9s-1.5-.5-2 0z"
        />
      </g>
    </g>
    <use fill="#F39100" transform="matrix(1 0 0 -1 0 79)" xlink:href="#e" />
  </g>
</svg>
