<?xml version="1.0" standalone="no"?>
<!DOCTYPE svg PUBLIC "-//W3C//DTD SVG 20010904//EN"
 "http://www.w3.org/TR/2001/REC-SVG-20010904/DTD/svg10.dtd">
<svg version="1.0" xmlns="http://www.w3.org/2000/svg"
 width="114.000000pt" height="114.000000pt" viewBox="0 0 114.000000 114.000000"
 preserveAspectRatio="xMidYMid meet">
<metadata>
Created by potrace 1.11, written by Peter Selinger 2001-2013
</metadata>
<g transform="translate(0.000000,114.000000) scale(0.100000,-0.100000)"
fill="#000000" stroke="none">
<path d="M0 570 l0 -570 570 0 570 0 0 570 0 570 -570 0 -570 0 0 -570z m553
236 c21 -8 47 -22 57 -31 18 -16 21 -16 47 3 88 63 234 44 274 -35 9 -19 15
-80 19 -183 l5 -155 28 0 c24 1 27 -3 27 -32 0 -40 -26 -57 -93 -57 -36 0 -53
6 -70 22 -20 21 -22 34 -27 183 -5 154 -6 162 -29 180 -26 21 -62 24 -93 8
-38 -20 -48 -68 -48 -234 l0 -155 -65 0 -65 0 0 175 c0 176 0 176 -26 202 -21
21 -32 24 -62 19 -67 -10 -72 -25 -72 -222 l0 -174 -70 0 -70 0 0 200 0 200
-25 0 c-23 0 -25 4 -25 45 l0 45 66 0 c63 0 65 -1 75 -30 6 -16 13 -30 14 -30
2 0 16 11 30 24 45 42 131 56 198 32z"/>
</g>
</svg>
