<svg
  xmlns="http://www.w3.org/2000/svg"
  xmlns:xlink="http://www.w3.org/1999/xlink"
  width="184"
  height="84"
  viewBox="0 0 184 84"
>
  <defs>
    <path
      id="a"
      d="M64.6 23.9h3.8c2.5 0 4 .3 5 1.3.8.8 1.1 2 1.1 4 0 1-.2 2.6-1.3 3.6-1 .9-2.4 1.3-5 1.3h-3.6V23.9zm0-16.7h4.6c5.3 0 7.2 1.5 7.2 5.6 0 2-.4 3.3-1.4 4.1-1.2 1-2.8 1.5-5.7 1.5h-4.7V7.2zM55.8.6v33.5h-3.7v6.5h17.5c5.5 0 8.6-.9 10.8-3a9 9 0 0 0 3-7.2 9 9 0 0 0-4.5-8.1l-.2-.1.2-.1c4.4-1.4 6.7-4.7 6.7-9.7 0-4.9-1.7-8.1-5.4-10A21.7 21.7 0 0 0 70 .6H55.8zm85.1 0v18.7c0 1.9-.1 3.2-1 4.3-.7 1-2 1.6-3.6 1.6s-3-.6-4-1.8c-.9-1.3-1.1-3-1.1-5.2V.6h-8.4v24.5h-3.5v6.2h8.6l1.4-3.7v.1c2.2 2.7 5.4 4.2 9.3 4.2 3.5 0 6.3-1 8.1-3 1.8-2 2.6-4.6 2.6-8.3V.6H141zm37.9-.4c-3.2 0-5.2 1.3-7 4.6l-5.5 9.3h-2.5V.6h-8.4v36.9H152v6.2h11.9v-23h3l5.9 10.6h8.4l-7.7-13.7 5.7-9.8c.7-1.3 1.3-1.7 2.3-1.7a4 4 0 0 1 2.2.8l.3.2-.3-5.4c-1.1-1-3-1.5-4.8-1.5zm-133 0c-2.4 0-4.2.8-5.2 2.2-.8 1-1.2 2.8-1.2 5v11.9c0 2 0 3.2-.8 4.3-.8 1-2 1.6-3.6 1.6-1.5 0-2.9-.6-3.8-1.8-.8-1.1-1.1-2.6-1.1-5.1V.6h-8.4v18.7c0 2 0 3.2-.9 4.3-.7 1-2 1.6-3.5 1.6-1.6 0-3-.6-3.8-1.8-.8-1.1-1.2-2.6-1.2-5.1V.6H4v24.5H.4v6.2H9l1.4-3.7v.2a11 11 0 0 0 9.2 4c4 0 7-1.3 8.7-3.8l.1-.1c1.3 1.5 4 4 9 4 4 0 7-1.4 8.7-4 1.2-1.7 1.7-4 1.7-7.4V7.8c0-1.5.7-1.7 1.3-1.7.7 0 1.7.4 2.2.8l.3.2-.3-5.2A9 9 0 0 0 45.8.1zm56.5 15.4c-3.1 0-5-1.8-5-5 0-3 1.7-4.8 4.5-4.8 1.4 0 2.6.5 3.4 1.4.7.8 1.1 2 1.1 3.7v4c-.9.4-2.5.7-4 .7zM99.5 0C93 0 89 4 89 10.3c0 6.5 4.4 10.4 11.7 10.4 1.8 0 4-.3 5.6-.9h.1v.6c0 2.1-.3 3.2-1 4.2-1 1-2.6 1.5-4.8 1.5-2.9 0-6-.8-8.7-2.2l-.3-.2v6.1h.1c2.8 1.3 6.4 2 10.1 2 4.8 0 8.1-1 10.4-3.2 1.8-1.7 2.6-4.2 2.6-7.9v-13c0-1.1.4-1.6 1.2-1.6.7 0 1.8.4 2.3.8l.3.2L118 2a9.8 9.8 0 0 0-5.5-1.7c-2.5 0-4.4 1-5.2 2.9v.1h-.1c-1.7-2-4.6-3.2-7.8-3.2z"
    />
  </defs>
  <g fill="none" fill-rule="evenodd">
    <g transform="matrix(1 0 0 -1 0 44.2)">
      <mask id="b" fill="white">
        <use xlink:href="#a" />
      </mask>
      <use fill="#1F1A15" fill-rule="nonzero" xlink:href="#a" />
      <g fill-rule="nonzero" mask="url(#b)">
        <path fill="#E41509" d="M10 108.8H-94.6V-73.5H10z" />
        <path fill="#F39100" d="M109.4-73.5H25v182.3h84.5z" />
        <path fill="#CC0915" d="M169.1-73.5h-59.7v182.3h59.7z" />
        <path fill="#20A134" d="M279.5-73.5H184v182.3h95.5z" />
        <path fill="#0976BD" d="M184-73.5h-14.9v182.3h15z" />
        <path fill="#1F1A15" d="M25-73.5H10v182.3h15z" />
      </g>
    </g>
    <path
      fill="#1F1A15"
      d="M51.2 64.8c0 1-.2 1.8-.5 2.3-.4.4-1 .6-2 .6H38.2c.2 1.6.8 2.8 1.7 3.6 1 .8 2.2 1.2 3.8 1.2a11.7 11.7 0 0 0 6.6-2l-.2 3.7c-1 .7-2.1 1.2-3.5 1.5-1.3.4-2.7.5-4 .5-1.6 0-3-.2-4.3-.7a8.4 8.4 0 0 1-5-5.2 14.6 14.6 0 0 1-.1-8.6 9.2 9.2 0 0 1 2-3.3 7 7 0 0 1 3-2 10 10 0 0 1 3.9-.7c1.3 0 2.6.2 3.7.6a8.1 8.1 0 0 1 4.7 4.7c.5 1.1.7 2.4.7 3.8zm-5.3-.6c0-1.5-.4-2.7-1-3.6a3.4 3.4 0 0 0-2.8-1.3c-1 0-2 .5-2.7 1.3-.7.8-1.2 2.2-1.2 4h7.3c.3 0 .4-.1.4-.4zM74.6 75a7.1 7.1 0 0 1-3.7 1.1c-.8 0-1.5-.2-2.2-.5a3 3 0 0 1-1.4-1.5c-.6.6-1.5 1.2-2.5 1.6-1 .3-2 .5-3.3.5-2.4 0-4.3-.6-5.5-1.9a5.5 5.5 0 0 1-1.4-2.3c-.2-.9-.4-1.9-.4-3V56h5.6v13.8l.6 1.2c.6.8 1.5 1.1 2.6 1.1.7 0 1.3 0 1.7-.3.5-.2.9-.5 1.2-1 .3-.4.5-.9.6-1.4l.2-2V56h5.5v15.3c0 .8.4 1.2 1 1.2.3 0 .6 0 .9-.2.3 0 .5-.2.7-.3l-.2 3zm14.2-15H87c-1.2 0-2.2.3-2.8 1-.4.5-.7 1-.8 1.7-.2.6-.2 1.4-.2 2.2v11h-5.5v-16h-2.5V56H81l1 2.8c.5-1 1.2-1.7 2.2-2.3a6.2 6.2 0 0 1 4.5-.7V60zm20.3 6a11 11 0 0 1-2.5 7.5c-1.7 1.8-4.1 2.7-7.3 2.7s-5.6-.9-7.3-2.7a10.7 10.7 0 0 1-2.5-7.5c0-3.2.8-5.8 2.5-7.6 1.7-1.8 4-2.7 7.3-2.7 3.2 0 5.6.9 7.3 2.7 1.6 1.8 2.5 4.4 2.5 7.6zm-5.6 0a14 14 0 0 0-.3-3.1c-.2-.8-.5-1.5-.9-2-.3-.6-.8-1-1.3-1.2-.5-.2-1-.3-1.7-.3-1.3 0-2.4.5-3.1 1.5a9 9 0 0 0-1.1 5c0 1.3 0 2.3.3 3.1.2.8.4 1.5.8 2 .4.6.8 1 1.3 1.2a5.2 5.2 0 0 0 3.5 0c.5-.3 1-.6 1.3-1.2.4-.5.7-1.2.9-2 .2-.8.3-1.8.3-3zm27.8-.3a15 15 0 0 1-.8 4.9 7.7 7.7 0 0 1-2.4 3.5c-1.7 1.4-4 2.1-6.9 2.1a19 19 0 0 1-3.2-.3V84h-5.5V59.9H110V56h5.7l1.1 2.6c.7-1 1.6-1.7 2.6-2.2 1-.5 2.3-.7 3.6-.7 1.4 0 2.6.2 3.7.7a7 7 0 0 1 2.5 2c.7.9 1.2 2 1.5 3.2.3 1.2.5 2.6.5 4zm-5.6.1a9 9 0 0 0-1-4.6c-.6-1-1.6-1.5-3-1.5-.6 0-1.2 0-1.7.3a3 3 0 0 0-1.2 1 4 4 0 0 0-.6 1.5 10 10 0 0 0-.2 2v7.9l2.7.3c1 0 1.8-.1 2.4-.5.7-.3 1.2-.7 1.6-1.3.3-.6.6-1.3.8-2.2l.2-2.9zm25.7-1c0 1-.1 1.8-.5 2.3-.4.4-1 .6-2 .6h-10.4c.2 1.6.8 2.8 1.7 3.6 1 .8 2.2 1.2 3.7 1.2a11.7 11.7 0 0 0 6.6-2l-.2 3.7a14.1 14.1 0 0 1-7.4 2 12 12 0 0 1-4.4-.7 8.4 8.4 0 0 1-5-5.2c-.5-1.3-.7-2.7-.7-4.2 0-1.7.2-3.1.7-4.4a9.2 9.2 0 0 1 2-3.3 7 7 0 0 1 3-2c1.1-.5 2.4-.7 3.8-.7s2.6.2 3.7.6a8.1 8.1 0 0 1 4.8 4.7c.4 1.1.6 2.4.6 3.8zm-5.3-.6c0-1.5-.3-2.7-1-3.6a3.4 3.4 0 0 0-2.8-1.3c-1 0-2 .5-2.7 1.3-.7.8-1.1 2.2-1.2 4h7.4c.2 0 .3-.1.3-.4z"
    />
  </g>
</svg>
