<svg width="184px" height="84px" viewBox="0 0 184 84" version="1.1" xmlns="http://www.w3.org/2000/svg" xmlns:xlink="http://www.w3.org/1999/xlink">
    <!-- Generator: Sketch 49.3 (51167) - http://www.bohemiancoding.com/sketch -->
    <desc>Created with Sketch.</desc>
    <defs>
        <path d="M64.5752748,23.8583304 L68.3805198,23.8583304 C70.9306563,23.8583304 72.3642272,24.2439223 73.3281599,25.1841827 C74.1664643,25.9942907 74.5398265,27.2070198 74.5398265,29.1155174 C74.5398265,30.2382345 74.3097041,31.786684 73.2130984,32.7889798 C72.2879108,33.6890997 70.8179428,34.0576623 68.1386557,34.0576623 L64.5752748,34.0576623 L64.5752748,23.8583304 Z M64.5752748,7.16232212 L69.2282172,7.16232212 C74.4635107,7.16232212 76.41251,8.69009325 76.41251,12.7941536 C76.41251,14.7148148 75.9581346,16.0601292 75.0259027,16.9067285 C73.8353689,17.9540302 72.2280316,18.3627334 69.286922,18.3627334 L64.5752748,18.3627334 L64.5752748,7.16232212 Z M55.8306085,0.60361045 L55.8306085,34.0576623 L52.1486438,34.0576623 L52.1486438,40.5543387 L69.5898383,40.5543387 C75.059951,40.5543387 78.1912649,39.7247687 80.3903469,37.6934169 C82.3240827,35.8907444 83.3455458,33.3764904 83.3455458,30.4267731 C83.3455458,26.8177787 81.717075,23.8437338 78.8781114,22.2673076 L78.6855591,22.1614827 L78.8957224,22.098231 C83.3079751,20.7407529 85.6397296,17.3726014 85.6397296,12.3562574 C85.6397296,7.54548128 83.8515811,4.28193837 80.1707906,2.37344085 C77.8625183,1.14854792 74.7276819,0.60361045 70.0113386,0.60361045 L55.8306085,0.60361045 Z M140.925558,0.60361045 L140.925558,19.2969119 C140.925558,21.1932456 140.770577,22.5117996 139.993325,23.6272185 C139.216074,24.6830349 137.949225,25.2389198 136.336017,25.2389198 C134.657059,25.2389198 133.288064,24.5954557 132.36992,23.3729955 C131.401292,22.053225 131.201695,20.3393481 131.201695,18.1717619 L131.201695,0.60361045 L122.817476,0.60361045 L122.817476,25.0515975 L119.316322,25.0515975 L119.316322,31.3001327 L127.886048,31.3001327 L129.265611,27.6108574 L129.360713,27.7337116 C131.463519,30.3963637 134.733376,31.8620995 138.569147,31.8620995 C142.073823,31.8620995 144.891653,30.8269616 146.724417,28.8673761 C148.510217,26.895627 149.307428,24.3497472 149.307428,20.6106004 L149.307428,0.60361045 L140.925558,0.60361045 Z M178.761972,0.227749562 C175.560212,0.227749562 173.591254,1.49886486 171.72679,4.75875865 L166.34943,14.1102749 L163.791075,14.1102749 L163.791075,0.60361045 L155.40803,0.60361045 L155.40803,37.4951473 L151.906877,37.4951473 L151.906877,43.7436825 L163.791075,43.7436825 L163.791075,20.6057349 L166.708704,20.6057349 L172.684852,31.3001327 L181.0632,31.3001327 L173.35526,17.6097952 L179.094241,7.76199665 C179.824529,6.50426146 180.374006,6.1004239 181.357898,6.1004239 C182.110494,6.1004239 182.968758,6.3972202 183.606292,6.87768962 L183.908034,7.10515238 L183.643863,1.69348539 L183.578114,1.6423975 C182.476812,0.769037896 180.631133,0.227749562 178.761972,0.227749562 Z M45.8425746,0.216802157 C43.3675805,0.216802157 41.5911734,0.958792908 40.5673618,2.41966322 C39.8194626,3.49250886 39.4414037,5.16989451 39.4414037,7.40681417 L39.4414037,19.2969119 C39.4414037,21.2285205 39.3803508,22.4850393 38.5690505,23.6272185 C37.8117586,24.6526254 36.5226014,25.2389198 35.0303255,25.2389198 C33.4887375,25.2389198 32.1103489,24.5820755 31.2485625,23.4350308 C30.4161285,22.287986 30.079163,20.799139 30.079163,18.2970489 L30.079163,0.60361045 L21.6949441,0.60361045 L21.6949441,19.2969119 C21.6949441,21.2297369 21.6362393,22.4862557 20.823765,23.6272185 C20.065299,24.6526254 18.7773158,25.2389198 17.2873881,25.2389198 C15.7422779,25.2389198 14.3638893,24.5820755 13.5044511,23.4350308 C12.6731912,22.287986 12.3338775,20.799139 12.3338775,18.2970489 L12.3338775,0.60361045 L3.95083272,0.60361045 L3.95083272,25.0515975 L0.448504636,25.0515975 L0.448504636,31.3001327 L9.01940477,31.3001327 L10.3919229,27.6266703 L10.4893728,27.7568228 C12.4254569,30.3659542 15.7375815,31.8620995 19.5803974,31.8620995 C23.6239837,31.8620995 26.5709645,30.5496273 28.3403269,27.9611743 L28.4049022,27.8638641 L28.4800444,27.9538761 C29.675274,29.41353 32.4085693,31.8620995 37.3268571,31.8620995 C41.3058681,31.8620995 44.4254409,30.4802937 46.1008757,27.9684726 C47.3078463,26.1925603 47.8221004,23.9726699 47.8221004,20.5473487 L47.8221004,7.78145865 C47.8221004,6.29017894 48.4690272,6.08947649 49.1018649,6.08947649 C49.7699254,6.08947649 50.8277859,6.50669424 51.2880314,6.86430944 L51.5932964,7.1027196 L51.3267766,1.8662111 L51.2539827,1.81390684 C50.1655958,1.04272301 48.173155,0.216802157 45.8425746,0.216802157 Z M102.34594,15.6112857 C99.1981892,15.6112857 97.3936035,13.808613 97.3936035,10.6691407 C97.3936035,7.56615974 99.0009408,5.7865983 101.801159,5.7865983 C103.158414,5.7865983 104.387693,6.29017894 105.171989,7.1659713 C105.930455,8.01257053 106.331996,9.28855139 106.331996,10.8552466 L106.331996,14.91795 L106.273291,14.9398448 C105.40446,15.2634015 103.805342,15.6112857 102.34594,15.6112857 Z M99.5093242,0.0416436849 C92.99544,0.0416436849 88.949506,3.96932915 88.949506,10.2920635 C88.949506,16.8300967 93.3042275,20.7322382 100.596537,20.7322382 C102.430475,20.7322382 104.583767,20.3916523 106.214586,19.8454985 L106.331996,19.8065743 L106.331996,20.3600265 C106.331996,22.4996358 106.045516,23.5968091 105.22952,24.5528824 C104.3466,25.5892367 102.746307,26.1159285 100.475606,26.1159285 C97.6025924,26.1159285 94.522939,25.3240662 91.8049068,23.8850908 L91.5430837,23.74764 L91.5430837,29.7954728 L91.6499265,29.8441279 C94.3996589,31.1468691 97.9853476,31.8620995 101.744803,31.8620995 C106.463495,31.8620995 109.840194,30.802634 112.065106,28.6228842 C113.874388,26.8737321 114.716214,24.3679929 114.716214,20.734671 L114.716214,7.79118972 C114.716214,6.58940794 115.067269,6.1004239 115.925533,6.1004239 C116.597116,6.1004239 117.725422,6.52615631 118.173927,6.87525683 L118.482714,7.11609977 L118.149271,1.87594213 L118.082347,1.82607062 C116.723918,0.840804215 114.624635,0.227749562 112.607538,0.227749562 C110.093799,0.227749562 108.199982,1.27505126 107.412164,3.0984023 L107.355807,3.2273384 L107.26188,3.12272987 C105.606404,1.19233754 102.707561,0.0416436849 99.5093242,0.0416436849 Z" id="path-1"></path>
    </defs>
    <g id="CONB---Current-Onboarding-Version" stroke="none" stroke-width="1" fill="none" fill-rule="evenodd">
        <g id="0.1.0-CONB-splash-screen" transform="translate(-88.000000, -279.000000)">
            <g id="logo--color" transform="translate(88.000000, 278.000000)">
                <g>
                    <g id="logo--mbank">
                        <g id="Group" transform="translate(92.000000, 23.255466) scale(-1, 1) rotate(-180.000000) translate(-92.000000, -23.255466) translate(0.000000, 1.297132)">
                            <mask id="mask-2" fill="white">
                                <use xlink:href="#path-1"></use>
                            </mask>
                            <use id="Shape" fill="#1F1A15" fill-rule="nonzero" xlink:href="#path-1"></use>
                            <g mask="url(#mask-2)" fill-rule="nonzero" id="Shape">
                                <g transform="translate(-94.486486, -73.513514)">
                                    <polygon fill="#E41509" points="104.432432 182.313514 0 182.313514 0 0 104.432432 0"></polygon>
                                    <polygon fill="#F39100" points="203.891892 0 119.351351 0 119.351351 182.313514 203.891892 182.313514"></polygon>
                                    <polygon fill="#CC0915" points="263.567568 0 203.891892 0 203.891892 182.313514 263.567568 182.313514"></polygon>
                                    <polygon fill="#20A134" points="373.967568 0 278.486486 0 278.486486 182.313514 373.967568 182.313514"></polygon>
                                    <polygon fill="#0976BD" points="278.486486 0 263.567568 0 263.567568 182.313514 278.486486 182.313514"></polygon>
                                    <polygon fill="#1F1A15" points="119.351351 0 104.432432 0 104.432432 182.313514 119.351351 182.313514"></polygon>
                                </g>
                            </g>
                        </g>
                    </g>
                    <path d="M51.1998587,65.7840308 C51.1998587,66.8470472 51.0199065,67.6034129 50.6599965,68.0531506 C50.3000865,68.5028883 49.6494897,68.7277537 48.7081867,68.7277537 L38.243164,68.7277537 C38.4369617,70.3359067 39.0045036,71.5283751 39.9458066,72.3051948 C40.8871096,73.0820145 42.1329332,73.4704185 43.6833147,73.4704185 C44.8461008,73.4704185 46.0157907,73.2864376 47.1924195,72.9184704 C48.3690483,72.5505032 49.4003134,72.0667017 50.2862457,71.4670515 L50.0786063,75.1875902 C49.1096179,75.8690109 47.9537705,76.3800688 46.6110294,76.7207792 C45.2682883,77.0614896 43.9186461,77.2318422 42.5620623,77.2318422 C40.95631,77.2318422 39.5305342,76.9933485 38.2846919,76.516354 C37.0388496,76.0393595 35.9937421,75.357949 35.1493379,74.472102 C34.3049337,73.586255 33.6612582,72.5164405 33.218292,71.2626263 C32.7753259,70.0088121 32.5538462,68.6051064 32.5538462,67.0514671 C32.5538462,65.4160572 32.7822471,63.9578387 33.239056,62.6767677 C33.6958648,61.3956967 34.3464616,60.3054398 35.1908658,59.4059644 C36.03527,58.506489 37.0388501,57.8250785 38.2016362,57.3617124 C39.3644223,56.8983462 40.6517733,56.6666667 42.0637279,56.6666667 C43.4203117,56.6666667 44.6661352,56.884718 45.8012359,57.3208273 C46.9363367,57.7569366 47.8983893,58.3702061 48.6874228,59.1606542 C49.4764562,59.9511022 50.0924467,60.905077 50.5354129,62.022607 C50.978379,63.1401371 51.1998587,64.3939324 51.1998587,65.7840308 Z M45.8842917,65.2116402 C45.8842917,63.6580009 45.5451508,62.4587184 44.8668589,61.6137566 C44.188567,60.7687949 43.2541993,60.3463203 42.0637279,60.3463203 C41.0116833,60.3463203 40.1188431,60.7619808 39.3851804,61.5933141 C38.6515177,62.4246474 38.2431644,63.7670262 38.1601083,65.6204906 L45.5105409,65.6204906 C45.7597093,65.6204906 45.8842917,65.4842085 45.8842917,65.2116402 Z M74.5879583,76.046176 C74.1173068,76.3460012 73.5636074,76.5981231 72.9268436,76.8025493 C72.2900798,77.0069755 71.6117981,77.1091871 70.8919781,77.1091871 C70.089102,77.1091871 69.3623716,76.9456486 68.7117651,76.6185666 C68.0611585,76.2914847 67.5974353,75.7736127 67.3205815,75.0649351 C66.6561323,75.7463558 65.8325045,76.277856 64.8496734,76.6594517 C63.8668422,77.0410473 62.7525223,77.2318422 61.50668,77.2318422 C59.0703663,77.2318422 57.2293159,76.5913163 55.9834736,75.3102453 C55.3467098,74.6288246 54.896829,73.8588307 54.6338179,73.0002405 C54.3708068,72.1416503 54.2393032,71.1399769 54.2393032,69.99519 L54.2393032,57.034632 L59.7625096,57.034632 L59.7625096,69.1366041 C59.7625096,69.7907681 59.804037,70.3427106 59.8870932,70.7924483 C59.9701493,71.242186 60.1501016,71.6578464 60.4269554,72.039442 C61.0083485,72.7753765 61.880425,73.1433381 63.0432111,73.1433381 C63.7076603,73.1433381 64.2682809,73.0274984 64.7250898,72.7958153 C65.1818986,72.5641322 65.5625669,72.2574975 65.8671061,71.8759019 C66.1993307,71.4397926 66.4208105,70.9423629 66.531552,70.3835979 C66.6422935,69.8248329 66.6976635,69.1638646 66.6976635,68.4006734 L66.6976635,57.034632 L72.2208699,57.034632 L72.2208699,72.2847523 C72.2208699,73.1024572 72.5530895,73.5113035 73.2175387,73.5113035 C73.4667071,73.5113035 73.7504781,73.4567907 74.06886,73.3477633 C74.3872419,73.238736 74.6294854,73.1160821 74.7955977,72.979798 L74.5879583,76.046176 Z M88.7568713,61.0822511 C88.5353882,61.0277374 88.272381,60.9936669 87.9678418,60.9800385 C87.6633026,60.9664101 87.3864529,60.959596 87.1372844,60.959596 C85.8637568,60.959596 84.9086254,61.3275576 84.2718616,62.0634921 C83.8842662,62.5268582 83.621259,63.0719866 83.4828321,63.6988937 C83.3444052,64.3258008 83.2751927,65.0753524 83.2751927,65.9475709 L83.2751927,76.8638769 L77.7519863,76.8638769 L77.7519863,60.8778259 L75.34337,60.8778259 L75.34337,57.034632 L81.1157436,57.034632 L82.1124125,59.8148148 C82.6107494,58.8335689 83.3374798,58.063575 84.2926255,57.50481 C85.2477712,56.946045 86.3067213,56.6666667 87.4695074,56.6666667 C87.9401589,56.6666667 88.3692759,56.7075513 88.7568713,56.7893218 L88.7568713,61.0822511 Z M109.071909,66.969697 C109.071909,70.1860029 108.234438,72.7004078 106.559473,74.512987 C104.884507,76.3255662 102.455151,77.2318422 99.2713319,77.2318422 C96.0875128,77.2318422 93.6581568,76.3255662 91.9831911,74.512987 C90.3082254,72.7004078 89.4707551,70.1860029 89.4707551,66.969697 C89.4707551,63.753391 90.3082254,61.232172 91.9831911,59.4059644 C93.6581568,57.5797568 96.0875128,56.6666667 99.2713319,56.6666667 C102.455151,56.6666667 104.884507,57.5797568 106.559473,59.4059644 C108.234438,61.232172 109.071909,63.753391 109.071909,66.969697 Z M103.465647,66.969697 C103.465647,65.7703964 103.368749,64.7482806 103.174951,63.9033189 C102.981154,63.0583572 102.704304,62.3769466 102.344394,61.8590669 C101.984484,61.3411871 101.541525,60.9664113 101.015502,60.7347282 C100.48948,60.5030452 99.9080957,60.3872054 99.2713319,60.3872054 C97.9701189,60.3872054 96.945775,60.8846351 96.1982697,61.8795094 C95.4507643,62.8743837 95.0770172,64.5710959 95.0770172,66.969697 C95.0770172,68.1689975 95.1739146,69.1842992 95.3677123,70.0156325 C95.56151,70.8469658 95.8383597,71.5215623 96.1982697,72.039442 C96.5581797,72.5573218 97.0011392,72.9320976 97.5271614,73.1637807 C98.0531837,73.3954637 98.6345681,73.5113035 99.2713319,73.5113035 C99.9080957,73.5113035 100.48948,73.3954637 101.015502,73.1637807 C101.541525,72.9320976 101.984484,72.5573218 102.344394,72.039442 C102.704304,71.5215623 102.981154,70.8469658 103.174951,70.0156325 C103.368749,69.1842992 103.465647,68.1689975 103.465647,66.969697 Z M131.297228,66.6835017 C131.297228,68.4824525 131.048063,70.1110237 130.549726,71.5692641 C130.051389,73.0275045 129.234683,74.2199729 128.099582,75.1467051 C126.383088,76.5368035 124.085236,77.2318422 121.205956,77.2318422 C120.652248,77.2318422 120.077785,77.2045858 119.48255,77.1500722 C118.887314,77.0955585 118.395906,77.0274174 118.00831,76.9456469 L118.00831,85 L112.485104,85 L112.485104,60.8778259 L110.076488,60.8778259 L110.076488,57.034632 L115.848861,57.034632 L116.928586,59.6103896 C117.593035,58.6564006 118.45819,57.9272913 119.524077,57.4230399 C120.589965,56.9187886 121.78734,56.6666667 123.116238,56.6666667 C124.528193,56.6666667 125.746331,56.9051604 126.77069,57.3821549 C127.79505,57.8591494 128.646362,58.5337458 129.324654,59.4059644 C130.002946,60.278183 130.501276,61.3343693 130.819657,62.5745551 C131.138039,63.8147408 131.297228,65.184376 131.297228,66.6835017 Z M125.690966,66.8470418 C125.690966,64.8027796 125.372589,63.2627918 124.735825,62.2270322 C124.099061,61.1912727 123.074717,60.6734007 121.662763,60.6734007 C121.053684,60.6734007 120.499985,60.7824264 120.001648,61.000481 C119.503311,61.2185356 119.101879,61.5592409 118.79734,62.022607 C118.492801,62.4314595 118.285163,62.9084468 118.174422,63.4535835 C118.06368,63.9987201 118.00831,64.6528742 118.00831,65.4160654 L118.00831,73.3886484 C118.894243,73.606703 119.794004,73.7157287 120.707622,73.7157287 C121.67661,73.7157287 122.479474,73.5590043 123.116238,73.2455507 C123.753002,72.9320972 124.265174,72.4755521 124.652769,71.8759019 C125.040364,71.2762516 125.310293,70.5539564 125.462563,69.7089947 C125.614832,68.864033 125.690966,67.9100582 125.690966,66.8470418 Z M151.446154,65.7840308 C151.446154,66.8470472 151.266202,67.6034129 150.906292,68.0531506 C150.546382,68.5028883 149.895785,68.7277537 148.954482,68.7277537 L138.489459,68.7277537 C138.683257,70.3359067 139.250799,71.5283751 140.192102,72.3051948 C141.133405,73.0820145 142.379228,73.4704185 143.92961,73.4704185 C145.092396,73.4704185 146.262086,73.2864376 147.438715,72.9184704 C148.615343,72.5505032 149.646608,72.0667017 150.532541,71.4670515 L150.324901,75.1875902 C149.355913,75.8690109 148.200066,76.3800688 146.857324,76.7207792 C145.514583,77.0614896 144.164941,77.2318422 142.808357,77.2318422 C141.202605,77.2318422 139.776829,76.9933485 138.530987,76.516354 C137.285145,76.0393595 136.240037,75.357949 135.395633,74.472102 C134.551229,73.586255 133.907553,72.5164405 133.464587,71.2626263 C133.021621,70.0088121 132.800141,68.6051064 132.800141,67.0514671 C132.800141,65.4160572 133.028542,63.9578387 133.485351,62.6767677 C133.94216,61.3956967 134.592757,60.3054398 135.437161,59.4059644 C136.281565,58.506489 137.285145,57.8250785 138.447931,57.3617124 C139.610717,56.8983462 140.898068,56.6666667 142.310023,56.6666667 C143.666607,56.6666667 144.91243,56.884718 146.047531,57.3208273 C147.182632,57.7569366 148.144684,58.3702061 148.933718,59.1606542 C149.722751,59.9511022 150.338742,60.905077 150.781708,62.022607 C151.224674,63.1401371 151.446154,64.3939324 151.446154,65.7840308 Z M146.130587,65.2116402 C146.130587,63.6580009 145.791446,62.4587184 145.113154,61.6137566 C144.434862,60.7687949 143.500494,60.3463203 142.310023,60.3463203 C141.257978,60.3463203 140.365138,60.7619808 139.631475,61.5933141 C138.897813,62.4246474 138.48946,63.7670262 138.406403,65.6204906 L145.756836,65.6204906 C146.006004,65.6204906 146.130587,65.4842085 146.130587,65.2116402 Z" id="europe" fill="#1F1A15"></path>
                </g>
            </g>
        </g>
    </g>
</svg>
