<svg
  xmlns="http://www.w3.org/2000/svg"
  xmlns:xlink="http://www.w3.org/1999/xlink"
  width="130"
  height="60"
  viewBox="0 0 130 60"
>
  <defs>
    <path
      id="a"
      d="M36.3 17.3v14.4h-7.6V18.4c0-.9 0-1.6-.4-2.2-.4-.7-1.1-1.2-2.1-1.2-1.2 0-2 .6-2.4 1.3-.5.7-.5 1.8-.5 2.8v12.6h-7.6V18.4c0-.9 0-1.6-.4-2.2-.4-.7-1.1-1.2-2.2-1.2s-1.8.6-2.3 1.3c-.5.7-.5 1.8-.5 2.8v12.6H2.7V15.1H0V9.8h7.1l1.4 3a8.6 8.6 0 0 1 7.3-3.4c2.8 0 5 1.1 6.3 3 1.7-1.8 4-3 6.7-3 2.9 0 5.3 1.2 6.5 3.3.7 1 1 2.2 1 4.6zm23 1.9c0 1.3-.1 2.4-.8 3-.5.7-1.3.8-2.2.8H45.6c.5 2.7 2.3 4 5.3 4 2.6 0 5.4-.8 7.4-2.2l-.2 4.8a15.3 15.3 0 0 1-9 2.5c-7.2 0-11.3-4.3-11.3-11.2 0-7.4 4.7-11.5 11-11.5 6.2 0 10.5 3.7 10.5 9.8zm-7.3-.4c0-2.3-1-4.5-3.3-4.5-2 0-3.2 1.7-3.2 5h6c.3 0 .5-.1.5-.5zM70.2 4a4 4 0 0 1-4 4 4 4 0 0 1-4-4 4 4 0 0 1 4-4 4 4 0 0 1 4 4zM73 26.6l-.2 4.1c-1.1.8-3 1.4-4.9 1.4-2.3 0-3.8-.7-4.6-2-.5-.8-.7-1.9-.7-3.6V15h-2.7V9.8h10.3v16.1c0 .8.3 1.3 1 1.3.6 0 1.5-.4 1.8-.6zm23.4-9.3v14.4h-7.6V18.4c0-.9 0-1.6-.4-2.2-.4-.7-1.2-1.2-2.2-1.2-1.2 0-2 .6-2.5 1.3-.5.7-.6 1.8-.6 2.8v12.6h-7.6V15.1H73V9.8H80l1.4 3a9 9 0 0 1 7.4-3.4c3 0 5.4 1 6.6 3 .7 1.2 1 2.5 1 4.9zm23 1.9c0 1.3-.2 2.4-.8 3-.5.7-1.3.8-2.2.8h-10.7c.5 2.7 2.3 4 5.3 4 2.6 0 5.4-.8 7.4-2.2l-.2 4.8a15.3 15.3 0 0 1-9 2.5C102 32.1 98 27.8 98 21c0-7.4 4.7-11.5 11-11.5 6.1 0 10.5 3.7 10.5 9.8zm-7.3-.4c0-2.3-1-4.5-3.3-4.5-2 0-3.2 1.7-3.2 5h6c.3 0 .5-.1.5-.5z"
    />
  </defs>
  <g fill="none" fill-rule="evenodd">
    <g transform="translate(5 5)">
      <mask id="b" fill="#fff">
        <use xlink:href="#a" />
      </mask>
      <use fill="#FFF" xlink:href="#a" />
      <g fill-rule="nonzero" mask="url(#b)">
        <path fill="#E41509" d="M32 86h-63V-25h63z" />
        <path fill="#F39100" d="M92-25H41V86h51z" />
        <path fill="#CC0915" d="M129-25H92V86h37z" />
        <path fill="#1F1A15" d="M42-25H32V86h10z" />
      </g>
    </g>
    <path
      fill="#1F1A15"
      d="M32.3 42l-1.2-.3c-.5 0-.8.1-1 .4-.3.2-.4.7-.4 1.3v.7h2.1v2.8h-2.1V56h-3.5v-9.1h-1.6v-2.7h1.6v-.7c0-.7 0-1.2.2-1.8.1-.6.4-1 .7-1.5l1.4-1c.6-.2 1.3-.3 2-.3l1.4.1 1 .3-.6 2.6zm2.4.3c-.5 0-1-.1-1.4-.5-.4-.3-.6-.8-.6-1.3s.2-1 .6-1.3c.4-.4.9-.5 1.4-.5.7 0 1.1.1 1.5.5.4.3.6.8.6 1.3s-.2 1-.6 1.3c-.4.4-.8.5-1.5.5zM33 44.1h3.5V56H33V44.1zm5.9 0h2.8l.3 1.5 1.8-1.3c.6-.3 1.3-.5 2.1-.5 1.3 0 2.2.4 2.8 1.3.6.8.9 2 .9 3.5V56h-3.5v-7c0-.8-.1-1.4-.4-1.7-.2-.3-.6-.5-1.1-.5-.4 0-.8.1-1.1.3l-1.1.9v8h-3.5V44.1zm12.5 8.6c0-1.3.5-2.2 1.6-3 1-.6 2.8-1.1 5.1-1.4 0-.5-.2-.9-.5-1.2-.3-.3-.7-.5-1.4-.5l-1.5.3-1.6.8-1.3-2.3 2.4-1.2c.9-.2 1.8-.4 2.7-.4 1.5 0 2.7.4 3.5 1.3.8.9 1.2 2.2 1.2 4V56h-2.8l-.3-1.2c-.6.4-1.1.8-1.7 1a4.1 4.1 0 0 1-3.3.2c-.5-.2-.8-.4-1.1-.8-.3-.3-.6-.7-.7-1.1-.2-.4-.3-.9-.3-1.4zm3.4-.3c0 .4.1.7.3.9.3.2.6.3 1 .3.5 0 .8-.1 1.1-.3a5 5 0 0 0 1-.8v-2c-1.4.1-2.2.4-2.7.7-.5.4-.7.8-.7 1.2zm9.1-8.3h2.9l.2 1.5h.1l1.7-1.3c.6-.3 1.3-.5 2.1-.5 1.3 0 2.3.4 2.9 1.3.5.8.8 2 .8 3.5V56h-3.5v-7c0-.8-.1-1.4-.3-1.7-.3-.3-.6-.5-1.2-.5-.4 0-.8.1-1.1.3l-1 .9v8h-3.6V44.1zm12.3 10l5-7.2h-4.4V44h8.8V46l-5 7.2h5.2V56h-9.6v-1.9zm10-4c0-1 .2-1.9.5-2.7.3-.7.8-1.4 1.3-2a5.5 5.5 0 0 1 6-1.2c.7.3 1.2.7 1.7 1.2a5 5 0 0 1 1 1.9 7.9 7.9 0 0 1 0 3.7h-7c.1 1 .5 1.6 1 2 .6.4 1.2.6 2 .6.9 0 1.8-.3 2.6-.8l1.2 2.1a7.8 7.8 0 0 1-4.2 1.4c-.9 0-1.7-.2-2.4-.4a5.5 5.5 0 0 1-3.2-3.2c-.3-.8-.5-1.7-.5-2.7zm7.7-1.3c0-.7-.1-1.2-.4-1.7-.3-.4-.8-.6-1.6-.6-.5 0-1 .2-1.4.6-.5.3-.7 1-.9 1.7H94zm4.7-4.7h2.9l.2 1.5h.1l1.7-1.3c.6-.3 1.3-.5 2.2-.5 1.3 0 2.2.4 2.8 1.3.6.8.8 2 .8 3.5V56h-3.5v-7c0-.8 0-1.4-.3-1.7-.3-.3-.6-.5-1.1-.5-.5 0-.9.1-1.2.3l-1 .9v8h-3.6V44.1z"
    />
  </g>
</svg>
