<svg
  xmlns="http://www.w3.org/2000/svg"
  xmlns:xlink="http://www.w3.org/1999/xlink"
  width="187"
  height="187"
  viewBox="0 0 187 187"
>
  <defs>
    <circle id="a" cx="93.2" cy="93.2" r="93.2" />
    <filter id="b" width="130.4%" height="130.4%" x="-15.2%" y="-10.9%" filterUnits="objectBoundingBox">
      <feOffset dy="5" in="SourceAlpha" result="shadowOffsetOuter1" />
      <feGaussianBlur in="shadowOffsetOuter1" result="shadowBlurOuter1" stdDeviation="5" />
      <feColorMatrix
        in="shadowBlurOuter1"
        result="shadowMatrixOuter1"
        values="0 0 0 0 0.0352941176 0 0 0 0 0.462745098 0 0 0 0 0.741176471 0 0 0 0.2 0"
      />
      <feMerge>
        <feMergeNode in="shadowMatrixOuter1" />
        <feMergeNode in="SourceGraphic" />
      </feMerge>
    </filter>
    <path
      id="c"
      d="M39 .2c-2.1 0-3.6.6-4.5 1.9-.6.9-1 2.3-1 4.2v10.1c0 1.7 0 2.8-.7 3.7-.6.9-1.7 1.4-3 1.4a4 4 0 0 1-3.2-1.5c-.7-1-1-2.3-1-4.4V.6h-7.1v15.8c0 1.7-.1 2.8-.8 3.7-.6.9-1.7 1.4-3 1.4a4 4 0 0 1-3.2-1.5c-.7-1-1-2.3-1-4.4V.6H3.4v20.7h-3v5.4h7.3l1.1-3.2.1.1a9.4 9.4 0 0 0 7.8 3.5c3.4 0 5.9-1 7.4-3.3h.1c1 1.3 3.4 3.3 7.5 3.3 3.4 0 6-1.1 7.5-3.3 1-1.5 1.5-3.4 1.5-6.3V6.6c0-1.2.5-1.4 1-1.4.6 0 1.5.3 2 .6l.2.3-.2-4.5h-.1C42.6.8 41 .1 39 .1z"
    />
  </defs>
  <g fill="none" fill-rule="evenodd">
    <use fill="#F6F6F6" xlink:href="#a" />
    <g filter="url(#b)" transform="translate(35 33)">
      <path
        fill="#FFF"
        fill-rule="nonzero"
        d="M0 103.4c0 6.4 5.2 11.6 11.6 11.6h91.8c6.4 0 11.6-5.2 11.6-11.6V44.3v-1a6.4 6.4 0 0 0-2.5-4.1l-48-36.8c-4.1-3.2-10-3.2-14.1 0L2.5 39.1a6.4 6.4 0 0 0-2.5 5v59.3z"
      />
      <path
        fill="#F6F6F6"
        d="M103.4 112.4H11.6a9 9 0 0 1-7-3.3L54 67.4c2-1.8 5-1.8 7 0l49.4 41.7a9 9 0 0 1-7 3.3zM112.4 103.4a9 9 0 0 1-.7 3.4L80 80.1l32.4-34.2v57.5z"
      />
      <path
        fill="#F6F6F6"
        d="M4 41.2L52 4.4a9 9 0 0 1 11 0l48 36.8c.4.4.8.8 1 1.4L78 78.4l.5.4-15.7-13.2a7.8 7.8 0 0 0-10.5 0L37 78.3 3 42.6c.2-.6.6-1 1-1.4zM2.6 46l32.6 34-32 26.8a9 9 0 0 1-.6-3.4V46z"
      />
      <g transform="matrix(1 0 0 -1 36 53)">
        <mask id="d" fill="#fff">
          <use xlink:href="#c" />
        </mask>
        <use fill="#1F1A15" fill-rule="nonzero" xlink:href="#c" />
        <g fill-rule="nonzero" mask="url(#d)">
          <path fill="#E41509" d="M12.7 27H.4V.2h12.3z" />
          <path fill="#F39100" d="M24.4.2h-10V27h10z" />
          <path fill="#CC0915" d="M31.4.2h-7V27h7z" />
          <path fill="#20A134" d="M44.4.2H33.2V27h11.2z" />
          <path fill="#0976BD" d="M33.2.2h-1.8V27h1.8z" />
          <path fill="#1F1A15" d="M14.4.2h-1.7V27h1.7z" />
        </g>
      </g>
    </g>
  </g>
</svg>
