<svg xmlns="http://www.w3.org/2000/svg" width="33" height="36" viewBox="0 0 33 36">
  <g fill="#F39100" fill-rule="nonzero">
    <path d="M29.5 18.8h-.6V9.9L20 0H4.7A4.7 4.7 0 0 0 0 4.7v26.6C0 33.9 2.1 36 4.7 36h19.5c2.6 0 4.7-2.1 4.7-4.7h.6c2 0 3.5-1.6 3.5-3.5v-5.6c0-1.9-1.6-3.4-3.5-3.4zM20.6 4l4.7 5.1h-4.7V4.1zm6 27.2c0 1.3-1 2.4-2.4 2.4H4.7a2.5 2.5 0 0 1-2.4-2.4V4.7c0-1.3 1-2.4 2.4-2.4h13.7v9.2h8.3v7.3H14.8c-1.9 0-3.5 1.5-3.5 3.4v5.6c0 1.9 1.6 3.5 3.5 3.5h11.9zm4.1-3.5c0 .6-.5 1.2-1.2 1.2H14.8c-.6 0-1.2-.5-1.2-1.2v-5.6c0-.6.6-1.2 1.2-1.2h14.7c.7 0 1.2.6 1.2 1.2v5.6z" />
    <path d="M18 23h-3v5h1.7v-1.5h1c1.4 0 2.3-.6 2.3-1.8 0-.7-.5-1.7-2-1.7zm-.6 2.3h-.7v-1h.8c.5 0 .8 0 .8.5s-.4.5-.9.5zM22.6 23H20v5h2.3c1.9 0 2.7-1 2.7-2.5 0-1.3-.6-2.5-2.4-2.5zm-.4 3.7h-.6v-2.4h.5c1.2 0 1.3.9 1.3 1.2 0 .4-.2 1.2-1.2 1.2zM25 28h1.6v-1.9h2.1v-1.2h-2.1v-.6H29V23h-4z" />
  </g>
</svg>
