<svg
  xmlns="http://www.w3.org/2000/svg"
  xmlns:xlink="http://www.w3.org/1999/xlink"
  width="230"
  height="80"
  viewBox="0 0 230 80"
>
  <defs>
    <circle id="a" cx="39.9" cy="40" r="39.7" />
    <path id="d" d="M0 51c0 2.5 2 4.5 4.5 4.5h25.9c2.5 0 3-2 3-4.5V4.5C33.3 2 31.2 0 28.7 0H4.5C2 0 0 2 0 4.5V51z" />
    <filter id="c" width="205%" height="163%" x="-52.5%" y="-22.5%" filterUnits="objectBoundingBox">
      <feOffset dy="5" in="SourceAlpha" result="shadowOffsetOuter1" />
      <feGaussianBlur in="shadowOffsetOuter1" result="shadowBlurOuter1" stdDeviation="5" />
      <feColorMatrix
        in="shadowBlurOuter1"
        values="0 0 0 0 0.0352941176 0 0 0 0 0.462745098 0 0 0 0 0.741176471 0 0 0 0.2 0"
      />
    </filter>
    <circle id="e" cx="39.7" cy="39.7" r="39.7" />
    <filter id="f" width="163.6%" height="170%" x="-31.8%" y="-25%" filterUnits="objectBoundingBox">
      <feOffset dy="5" in="SourceAlpha" result="shadowOffsetOuter1" />
      <feGaussianBlur in="shadowOffsetOuter1" result="shadowBlurOuter1" stdDeviation="5" />
      <feColorMatrix
        in="shadowBlurOuter1"
        result="shadowMatrixOuter1"
        values="0 0 0 0 0.0352941176 0 0 0 0 0.462745098 0 0 0 0 0.741176471 0 0 0 0.2 0"
      />
      <feMerge>
        <feMergeNode in="shadowMatrixOuter1" />
        <feMergeNode in="SourceGraphic" />
      </feMerge>
    </filter>
    <path
      id="g"
      d="M20 0c-1.1 0-1.9.4-2.3 1-.4.5-.5 1.2-.5 2.2v5.2c0 .8 0 1.3-.4 1.8-.3.5-.9.7-1.5.7a2 2 0 0 1-1.7-.7c-.4-.5-.5-1.2-.5-2.3V.3H9.4v8c0 .9 0 1.4-.3 2-.4.4-1 .6-1.6.6a2 2 0 0 1-1.6-.7c-.4-.5-.5-1.2-.5-2.3V.3H1.7v10.6H.2v2.7h3.7l.6-1.6a4.8 4.8 0 0 0 4 1.8c1.8 0 3-.6 3.8-1.7h.1c.5.6 1.7 1.7 3.9 1.7 1.7 0 3-.6 3.8-1.7.5-.7.7-1.7.7-3.2V3.4c0-.7.3-.8.6-.8s.7.2 1 .4V.9C21.7.5 21 0 20 0z"
    />
  </defs>
  <g fill="none" fill-rule="evenodd">
    <g>
      <mask id="b" fill="#fff">
        <use xlink:href="#a" />
      </mask>
      <use fill="#F6F6F6" xlink:href="#a" />
      <g mask="url(#b)">
        <g transform="translate(23 14)">
          <use fill="#000" filter="url(#c)" xlink:href="#d" />
          <use fill="#FFF" xlink:href="#d" />
        </g>
        <g fill-rule="nonzero">
          <path fill="#E41509" d="M34 57h-7V20h7z" />
          <path fill="#F39100" d="M41 20h-6v37h6z" />
          <path fill="#CC0915" d="M44 20h-4v37h4z" />
          <path fill="#20A134" d="M52 20h-6v37h6z" />
          <path fill="#0976BD" d="M46 20h-2v37h2z" />
          <path fill="#1F1A15" d="M35 20h-1v37h1z" />
        </g>
        <path fill="#FFF" d="M42.8 63.5a3.2 3.2 0 1 0-6.3 0 3.2 3.2 0 0 0 6.3 0" />
        <path fill="#E8E8E8" d="M42.8 63.5a3.2 3.2 0 1 0-6.3 0 3.2 3.2 0 0 0 6.3 0z" />
      </g>
    </g>
    <use fill="#F6F6F6" transform="translate(150)" xlink:href="#e" />
    <g filter="url(#f)" transform="translate(162 15)">
      <path fill="#FFF" d="M4 25v-1.5A23.5 23.5 0 1 1 51 25h-3v-1.5A20.5 20.5 0 1 0 7 25H4z" />
      <path
        fill="#FFF"
        d="M29.8 46H37l8.5-7.6c-.9-.6-1.5-1.7-1.5-2.9v-10a3.5 3.5 0 0 1 7 0v.5a4.5 4.5 0 0 1 0 9v.5a3.5 3.5 0 0 1-3.6 3.5l-9.5 8.8-1 .2h-7a3 3 0 1 1 0-2zM4 35a4.5 4.5 0 0 1 0-9v-.5a3.5 3.5 0 0 1 7 0v10a3.5 3.5 0 0 1-7 0V35z"
      />
      <g transform="matrix(1 0 0 -1 16 32)">
        <mask id="h" fill="#fff">
          <use xlink:href="#g" />
        </mask>
        <use fill="#1F1A15" fill-rule="nonzero" xlink:href="#g" />
        <g fill-rule="nonzero" mask="url(#h)">
          <path fill="#E41509" d="M6.5 13.7H.2V0h6.3z" />
          <path fill="#F39100" d="M12.5 0H7.4v13.7h5.1z" />
          <path fill="#CC0915" d="M16.1 0h-3.6v13.7h3.6z" />
          <path fill="#20A134" d="M22.7 0H17v13.7h5.7z" />
          <path fill="#0976BD" d="M17 0h-.9v13.7h.9z" />
          <path fill="#1F1A15" d="M7.4 0h-.9v13.7h.9z" />
        </g>
      </g>
    </g>
    <g stroke="#0976BD" stroke-linecap="round" stroke-width="3">
      <path d="M120.1 64a33.7 33.7 0 0 0 0-47.7" />
      <path d="M110.2 54a19.7 19.7 0 0 0 0-27.8" opacity=".6" />
      <path d="M100 43.9c2.1-2 2.1-5.4 0-7.5" opacity=".4" />
    </g>
  </g>
</svg>
