<svg
  xmlns="http://www.w3.org/2000/svg"
  xmlns:xlink="http://www.w3.org/1999/xlink"
  width="96"
  height="96"
  viewBox="0 0 96 96"
>
  <defs>
    <circle id="a" cx="47.8" cy="48.1" r="47.6" />
    <path
      id="d"
      d="M0 79.9c0 3 2.4 5.4 5.4 5.4h31c3 0 3.6-2.4 3.6-5.4V24c0-3-2.4-5.5-5.4-5.5H5.4c-3 0-5.4 2.5-5.4 5.5v55.8z"
    />
    <filter id="c" width="187.5%" height="152.5%" x="-43.8%" y="-18.8%" filterUnits="objectBoundingBox">
      <feOffset dy="5" in="SourceAlpha" result="shadowOffsetOuter1" />
      <feGaussianBlur in="shadowOffsetOuter1" result="shadowBlurOuter1" stdDeviation="5" />
      <feColorMatrix
        in="shadowBlurOuter1"
        values="0 0 0 0 0.0352941176 0 0 0 0 0.462745098 0 0 0 0 0.741176471 0 0 0 0.2 0"
      />
    </filter>
  </defs>
  <g fill="none" fill-rule="evenodd">
    <mask id="b" fill="#fff">
      <use xlink:href="#a" />
    </mask>
    <use fill="#F6F6F6" xlink:href="#a" />
    <g mask="url(#b)">
      <g transform="translate(27.9 15.7)">
        <use fill="#000" filter="url(#c)" xlink:href="#d" />
        <use fill="#FFF" xlink:href="#d" />
      </g>
      <path fill="#FFF" d="M31.7 85.7H64V42H31.7v43.7z" />
      <path fill="#0976BD" d="M32.5 85.7h30.7V42H32.5v43.7z" />
      <path fill="#FFF" d="M51.7 94.3a3.8 3.8 0 1 0-7.7 0 3.8 3.8 0 0 0 7.7 0" />
      <path fill="#E8E8E8" d="M51.7 94.3a3.8 3.8 0 1 0-7.7 0 3.8 3.8 0 0 0 7.7 0z" />
      <g stroke="#0976BD" stroke-linecap="round" stroke-width="3">
        <path d="M58.5 20.1a15.1 15.1 0 0 0-21.3 0M54 24.6a8.8 8.8 0 0 0-12.4 0M49.5 29.1c-.9-1-2.4-1-3.3 0" />
      </g>
    </g>
  </g>
</svg>
